<svg width="31" height="31" viewBox="0 0 31 31" fill="none" xmlns="http://www.w3.org/2000/svg">
<path fill-rule="evenodd" clip-rule="evenodd" d="M10.3333 21.9584C10.3333 21.245 10.9116 20.6667 11.625 20.6667H19.375C20.0884 20.6667 20.6667 21.245 20.6667 21.9584C20.6667 22.6718 20.0884 23.2501 19.375 23.2501H11.625C10.9116 23.2501 10.3333 22.6718 10.3333 21.9584Z" fill="#008767"/>
<path fill-rule="evenodd" clip-rule="evenodd" d="M10.3333 16.7917C10.3333 16.0783 10.9116 15.5 11.625 15.5H19.375C20.0884 15.5 20.6667 16.0783 20.6667 16.7917C20.6667 17.505 20.0884 18.0833 19.375 18.0833H11.625C10.9116 18.0833 10.3333 17.505 10.3333 16.7917Z" fill="#008767"/>
<path fill-rule="evenodd" clip-rule="evenodd" d="M10.3333 11.6249C10.3333 10.9116 10.9116 10.3333 11.625 10.3333H12.9167C13.63 10.3333 14.2083 10.9116 14.2083 11.6249C14.2083 12.3383 13.63 12.9166 12.9167 12.9166H11.625C10.9116 12.9166 10.3333 12.3383 10.3333 11.6249Z" fill="#008767"/>
<path fill-rule="evenodd" clip-rule="evenodd" d="M10.3333 5.16659C8.90659 5.16659 7.74999 6.32318 7.74999 7.74992V23.2499C7.74999 24.6767 8.90659 25.8333 10.3333 25.8333H20.6667C22.0934 25.8333 23.25 24.6767 23.25 23.2499V11.4033C23.25 11.0607 23.1139 10.7322 22.8717 10.49L17.9266 5.54491C17.6844 5.30267 17.3558 5.16659 17.0133 5.16659H10.3333ZM5.16666 7.74992C5.16666 4.89645 7.47985 2.58325 10.3333 2.58325H17.0133C18.041 2.58325 19.0266 2.99151 19.7533 3.71821L24.6984 8.66327C25.4251 9.38997 25.8333 10.3756 25.8333 11.4033V23.2499C25.8333 26.1034 23.5201 28.4166 20.6667 28.4166H10.3333C7.47985 28.4166 5.16666 26.1034 5.16666 23.2499V7.74992Z" fill="#008767"/>
<path fill-rule="evenodd" clip-rule="evenodd" d="M18.0833 3.875V6.45833C18.0833 8.59844 19.8182 10.3333 21.9583 10.3333H24.5417V12.9167H21.9583C18.3915 12.9167 15.5 10.0252 15.5 6.45833V3.875H18.0833Z" fill="#008767"/>
</svg>
