<svg width="501" height="350" viewBox="0 0 501 350" fill="none" xmlns="http://www.w3.org/2000/svg">
<path d="M156.318 206.562V19.1128C156.318 9.24264 163.111 1.21277 171.46 1.21277H485.858C494.207 1.21277 501 9.24264 501 19.1128V206.562C501 216.433 494.207 224.463 485.858 224.463H171.46C163.111 224.463 156.318 216.433 156.318 206.562ZM499.465 19.1128C499.465 10.2293 493.373 3.02781 485.858 3.02781H171.46C163.945 3.02781 157.854 10.2295 157.854 19.1133V206.562C157.854 215.446 163.945 222.648 171.46 222.648H385.309C448.355 222.648 499.465 162.227 499.465 87.6951L499.465 19.1128Z" fill="#E6E6E6"/>
<path d="M267.082 35.3092H90.8771C85.6523 35.3092 81.4038 40.3317 81.4038 46.5083V123.03C81.4038 129.206 85.6523 134.229 90.8771 134.229H267.082C272.307 134.229 276.555 129.206 276.555 123.03V46.5083C276.555 40.3317 272.307 35.3092 267.082 35.3092Z" fill="white"/>
<path d="M267.082 35.3092H90.8771C85.6523 35.3092 81.4038 40.3317 81.4038 46.5083V123.03C81.4038 129.206 85.6523 134.229 90.8771 134.229H267.082C272.307 134.229 276.555 129.206 276.555 123.03V46.5083C276.555 40.3317 272.307 35.3092 267.082 35.3092ZM275.559 123.03C275.559 128.559 271.759 133.051 267.082 133.051H90.8771C86.2002 133.051 82.3999 128.559 82.3999 123.03V46.5083C82.3999 40.9794 86.2002 36.4868 90.8771 36.4868H267.082C271.759 36.4868 275.559 40.9794 275.559 46.5083V123.03Z" fill="#3F3D56"/>
<path d="M99.1273 70.1844H255.731C257.215 70.1844 258.418 71.6065 258.418 73.3608C258.418 75.115 257.215 76.5371 255.731 76.5371H99.1273C97.6434 76.5371 96.4404 75.115 96.4404 73.3608C96.4404 71.6065 97.6434 70.1844 99.1273 70.1844Z" fill="#4ADE80"/>
<path d="M99.1273 91.0574H155.934C157.418 91.0574 158.621 92.4795 158.621 94.2337C158.621 95.9879 157.418 97.41 155.934 97.41H99.1273C97.6434 97.41 96.4404 95.9879 96.4404 94.2337C96.4404 92.4795 97.6434 91.0574 99.1273 91.0574Z" fill="#4ADE80"/>
<path d="M441.086 60.4804H333.613C331.92 60.4804 330.542 58.8519 330.542 56.8503C330.542 54.8487 331.92 53.2202 333.613 53.2202H441.086C442.779 53.2202 444.157 54.8487 444.157 56.8503C444.157 58.8519 442.779 60.4804 441.086 60.4804Z" fill="#E6E6E6"/>
<path d="M461.46 139.206H311.703V138.298C361.012 147.238 410.981 146.503 461.46 138.298V139.206Z" fill="#E6E6E6"/>
<path d="M441.086 106.764H333.613C331.92 106.764 330.542 105.135 330.542 103.134C330.542 101.132 331.92 99.5038 333.613 99.5038H441.086C442.779 99.5038 444.157 101.132 444.157 103.134C444.157 105.135 442.779 106.764 441.086 106.764Z" fill="#E6E6E6"/>
<path d="M462.228 151.004H312.471V151.911H462.228V151.004Z" fill="#E6E6E6"/>
<path d="M441.086 82.8896H333.613C331.92 82.8896 330.542 81.2611 330.542 79.2595C330.542 77.2579 331.92 75.6294 333.613 75.6294H441.086C442.779 75.6294 444.157 77.2579 444.157 79.2595C444.157 81.2611 442.779 82.8896 441.086 82.8896Z" fill="#E6E6E6"/>
<path d="M462.228 163.709C410.536 159.552 360.334 158.89 312.471 163.709V162.802H462.228V163.709Z" fill="#E6E6E6"/>
<path d="M255.55 148.941L249.233 145.403C251.824 149.678 254.057 156.355 255.252 161.668C257.276 156.719 260.539 150.663 263.768 147.046L257.091 149.077C261.206 125.238 276.681 108.124 294.403 108.124V106.309C275.892 106.309 259.751 124.14 255.55 148.941Z" fill="#3F3D56"/>
<path d="M284.629 185.263H244.71C243.017 185.263 241.64 183.635 241.64 181.633C241.64 179.632 243.017 178.003 244.71 178.003H284.629C286.322 178.003 287.7 179.632 287.7 181.633C287.7 183.635 286.322 185.263 284.629 185.263Z" fill="#4ADE80"/>
<path d="M182.419 106.485C188.355 106.485 193.166 100.797 193.166 93.78C193.166 86.7631 188.355 81.0747 182.419 81.0747C176.483 81.0747 171.672 86.7631 171.672 93.78C171.672 100.797 176.483 106.485 182.419 106.485Z" fill="#4ADE80"/>
<path d="M188.009 86.3402C187.497 85.986 186.715 86.1697 186.433 86.8285C185.156 89.8202 183.879 92.8119 182.601 95.8037C181.571 93.8953 180.252 92.2289 178.723 90.8322C178.23 90.3824 177.433 90.7436 177.148 91.3206C176.8 92.0238 177.067 92.7321 177.561 93.1831C179.344 94.8117 180.719 97.0008 181.645 99.4167C181.997 100.335 183.266 100.277 183.634 99.4167C185.23 95.6786 186.826 91.9407 188.422 88.2027C188.702 87.5466 188.569 86.7272 188.009 86.3402Z" fill="white"/>
<path d="M311.387 69.2769C317.322 69.2769 322.134 63.5886 322.134 56.5716C322.134 49.5547 317.322 43.8663 311.387 43.8663C305.451 43.8663 300.639 49.5547 300.639 56.5716C300.639 63.5886 305.451 69.2769 311.387 69.2769Z" fill="#4ADE80"/>
<path d="M316.977 49.1319C316.465 48.7778 315.683 48.9614 315.401 49.6203C314.124 52.612 312.846 55.6037 311.569 58.5955C310.538 56.687 309.22 55.0207 307.691 53.624C307.198 53.1741 306.401 53.5353 306.115 54.1123C305.767 54.8155 306.035 55.5239 306.528 55.9748C308.312 57.6035 309.687 59.7925 310.613 62.2084C310.965 63.1269 312.234 63.0689 312.602 62.2084C314.198 58.4704 315.794 54.7324 317.39 50.9944C317.67 50.3384 317.536 49.5189 316.977 49.1319Z" fill="white"/>
<path d="M465.687 90.1498C471.623 90.1498 476.435 84.4615 476.435 77.4445C476.435 70.4276 471.623 64.7393 465.687 64.7393C459.752 64.7393 454.94 70.4276 454.94 77.4445C454.94 84.4615 459.752 90.1498 465.687 90.1498Z" fill="#4ADE80"/>
<path d="M471.277 70.005C470.765 69.6508 469.983 69.8345 469.702 70.4933C468.424 73.485 467.147 76.4767 465.87 79.4685C464.839 77.5601 463.521 75.8937 461.991 74.497C461.499 74.0472 460.701 74.4084 460.416 74.9853C460.068 75.6886 460.335 76.3969 460.829 76.8479C462.612 78.4765 463.988 80.6656 464.914 83.0815C465.266 83.9999 466.535 83.9419 466.902 83.0815C468.498 79.3434 470.094 75.6055 471.69 71.8675C471.971 71.2114 471.837 70.392 471.277 70.005Z" fill="white"/>
<path d="M224.806 156.926H198.92C197.312 156.926 196.005 155.38 196.005 153.48C192.582 141.653 192.65 130.065 196.005 118.701C196.005 116.801 197.312 115.255 198.92 115.255H224.806C226.414 115.255 227.721 116.801 227.721 118.701V153.48C227.721 155.38 226.414 156.926 224.806 156.926Z" fill="#E6E6E6"/>
<path d="M204.466 116.282C200.273 116.282 196.873 120.301 196.873 125.258V152.742C196.873 154.486 198.069 155.899 199.544 155.899H213.859C221.035 155.899 226.853 149.022 226.853 140.538V119.439C226.853 117.695 225.657 116.282 224.182 116.282H204.466Z" fill="white"/>
<path d="M217.892 126.389H205.772C205.466 126.389 205.218 126.095 205.218 125.734C205.218 125.373 205.466 125.079 205.772 125.079H217.892C218.197 125.079 218.446 125.373 218.446 125.734C218.446 126.095 218.197 126.389 217.892 126.389Z" fill="#E6E6E6"/>
<path d="M217.892 140.358H205.772C205.466 140.358 205.218 140.064 205.218 139.703C205.218 139.342 205.466 139.048 205.772 139.048H217.892C218.197 139.048 218.446 139.342 218.446 139.703C218.446 140.064 218.197 140.358 217.892 140.358Z" fill="#E6E6E6"/>
<path d="M224.395 133.378H199.268C198.963 133.378 198.714 133.084 198.714 132.723C198.714 132.362 198.963 132.068 199.268 132.068H224.395C224.701 132.068 224.949 132.362 224.949 132.723C224.949 133.084 224.701 133.378 224.395 133.378Z" fill="#E6E6E6"/>
<path d="M224.692 146.038H214.207C213.901 146.038 213.653 145.744 213.653 145.383C213.653 145.021 213.901 144.728 214.207 144.728H224.692C224.997 144.728 225.246 145.021 225.246 145.383C225.246 145.744 224.997 146.038 224.692 146.038Z" fill="#E6E6E6"/>
<path d="M46.4567 61.7759C47.1385 58.0583 47.3388 60.7969 48.822 57.4249C47.804 61.7823 49.6825 60.3554 52.1778 63.7721C69.7136 67.0225 70.8186 59.9224 77.3082 60.14L77.3414 60.1397C78.7694 60.1124 79.5029 58.091 78.6421 56.7438C76.5164 53.4174 74.1732 48.2847 76.3908 45.0533C80.3195 39.3287 76.8573 27.5894 75.164 30.1274C75.164 20.3379 64.9662 13.9181 61.0104 15.5087C53.7009 18.4477 46.9318 22.4117 46.112 31.2811C45.984 32.666 45.8184 34.0429 45.608 35.4137C45.1806 38.1975 43.4203 38.9367 44.0261 41.6706L45.9205 43.9487C46.8095 47.9607 46.5286 52.1726 45.3107 56.062C44.6375 58.212 44.5442 60.0554 46.4567 61.7759Z" fill="#2F2E41"/>
<path d="M64.7128 48.6398C70.7834 48.6398 75.7047 42.822 75.7047 35.6454C75.7047 28.4688 70.7834 22.651 64.7128 22.651C58.6422 22.651 53.7209 28.4688 53.7209 35.6454C53.7209 42.822 58.6422 48.6398 64.7128 48.6398Z" fill="#FFD6DC"/>
<path d="M47.59 331.877L53.2506 332.035L56.4059 301.971L48.0523 301.737L47.59 331.877Z" fill="#FFD6DC"/>
<path d="M67.0108 345.839C67.0108 346.969 66.3322 347.886 65.4951 347.886H54.2592C54.2592 347.886 53.1535 342.631 48.6454 340.37L48.3343 347.886H42.5381L43.2404 335.801C43.2404 335.801 41.6898 329.335 44.9099 326.031C48.13 322.726 45.5219 323.186 45.5219 323.186L46.7886 315.706L55.5473 316.924L55.6117 328.665L59.8622 340.319L66.0967 343.96C66.6516 344.284 67.0108 345.022 67.0108 345.839Z" fill="#2F2E41"/>
<path d="M53.8155 304.602L58.3117 308.67L75.8386 286.569L69.2037 280.564L53.8155 304.602Z" fill="#FFD6DC"/>
<path d="M62.5563 329.406C61.9932 330.32 60.9882 330.588 60.3116 330.005L51.2309 322.183C51.2309 322.183 52.9548 317.166 50.4378 312.2L46.4424 318.058L41.7579 314.022L48.3457 304.744C48.3457 304.744 50.3134 298.44 54.5622 298.01C58.8111 297.581 56.474 296.137 56.474 296.137L61.2238 290.974L67.6959 298.056L61.8989 307.59L59.5285 319.968L62.7534 327.251C63.0405 327.899 62.963 328.746 62.5563 329.406Z" fill="#2F2E41"/>
<path d="M37.6178 178.154C37.9591 179.809 37.3305 187.508 37.682 190.157C38.5757 196.892 46.7415 233.615 45.3328 244.083C40.1715 282.44 47.3099 307.047 47.3099 307.047H58.8249L64.9662 190.885L70.96 200.225L82.6883 241.637L61.9414 285.734L72.7744 296.311L105.119 235.515L82.1349 133.815L80.7464 127.674L49.692 126.65L51.4198 129.711L47.4891 134.302C47.4891 134.302 47.4838 134.315 47.463 134.339C46.8575 135.339 33.4 157.722 37.6178 178.154Z" fill="#2F2E41"/>
<path d="M47.463 134.339C51.0596 135.857 75.3645 134.29 82.1349 133.815L80.7464 127.674L49.692 126.65L51.4198 129.711L47.4891 134.302C47.4891 134.302 47.4838 134.315 47.463 134.339Z" fill="#FFD6DC"/>
<path d="M87.6588 85.1645L86.5403 92.1811L86.2691 93.864L80.3196 108.3L81.1014 129.464C81.6021 131.941 60.4767 126.32 49.5023 132.127L40.9598 83.8289L49.6217 61.5681L56.4006 57.1159L57.5304 51.7733H71.8904C72.6552 56.0073 71.8261 58.0936 70.3399 59.2943L73.9371 70.6353L87.6588 85.1645Z" fill="#4ADE80"/>
<path d="M98.8908 43.7776C98.7131 45.5947 98.203 47.2136 97.4981 48.4342L96.7298 65.8705L89.7222 65.1956L91.2561 47.5808C90.8055 46.2023 90.6213 44.4885 90.7991 42.6714C91.2051 38.5204 93.3457 35.4029 95.5801 35.7084C97.8147 36.0139 99.2969 39.6266 98.8908 43.7776Z" fill="#FFD6DC"/>
<path d="M70.9609 62.1016L71.8752 64.7393C71.8752 64.7393 58.5176 63.1573 58.8028 71.4021C59.0462 78.4367 84.189 106.316 85.3904 106.967C88.9486 108.895 93.0842 106.3 93.728 101.736C99.3894 84.4685 100.563 68.9006 97.9758 54.7566H90.2991L87.7993 65.9145L87.6588 74.4019L83.6108 84.6101L70.3398 64.7393L70.9609 62.1016Z" fill="#4ADE80"/>
<path d="M26.4572 159.019C26.9507 157.241 27.0637 155.479 26.8514 153.988L32.4581 137.403L25.7043 134.48L20.744 151.619C19.8257 152.671 19.0334 154.169 18.5399 155.947C17.4124 160.009 18.2707 163.989 20.457 164.837C22.6433 165.685 25.3296 163.081 26.4572 159.019Z" fill="#FFD6DC"/>
<path d="M58.7983 62.1107C58.7983 62.1107 50.5055 58.3934 45.7978 62.9357C43.8564 64.809 35.2702 77.717 33.9476 95.0944C33.844 96.4564 33.0591 97.6281 32.617 98.9019C29.8903 106.757 25.196 110.376 23.2 117.094C22.42 119.719 23.8507 126.509 23.3578 128.775C20.777 140.635 21.7083 147.397 21.7083 147.397L28.6775 150.14L32.4581 146.981L38.6675 120.175L58.7983 62.1107Z" fill="#4ADE80"/>
<path d="M121.172 41.6706H95.2847C93.6775 41.6706 92.3699 40.1248 92.3699 38.2248C88.9473 26.3983 89.0149 14.8099 92.3699 3.44582C92.3699 1.54576 93.6775 0 95.2847 0H121.172C122.779 0 124.086 1.54576 124.086 3.44582V38.2248C124.086 40.1248 122.779 41.6706 121.172 41.6706Z" fill="#E6E6E6"/>
<path d="M100.831 1.02673C96.6379 1.02673 93.2385 5.04546 93.2385 10.0028V37.4869C93.2385 39.2305 94.4341 40.644 95.909 40.644H110.224C117.4 40.644 123.218 33.7668 123.218 25.2833V4.18376C123.218 2.44019 122.022 1.02673 120.547 1.02673H100.831Z" fill="white"/>
<path d="M114.257 11.1336H102.137C101.831 11.1336 101.583 10.8397 101.583 10.4785C101.583 10.1173 101.831 9.82349 102.137 9.82349H114.257C114.562 9.82349 114.811 10.1173 114.811 10.4785C114.811 10.8397 114.562 11.1336 114.257 11.1336Z" fill="#E6E6E6"/>
<path d="M114.257 25.1028H102.137C101.831 25.1028 101.583 24.8089 101.583 24.4477C101.583 24.0865 101.831 23.7927 102.137 23.7927H114.257C114.562 23.7927 114.811 24.0865 114.811 24.4477C114.811 24.8089 114.562 25.1028 114.257 25.1028Z" fill="#E6E6E6"/>
<path d="M120.76 18.1227H95.6334C95.3278 18.1227 95.0792 17.8288 95.0792 17.4676C95.0792 17.1064 95.3278 16.8126 95.6334 16.8126H120.76C121.066 16.8126 121.315 17.1064 121.315 17.4676C121.315 17.8288 121.066 18.1227 120.76 18.1227Z" fill="#E6E6E6"/>
<path d="M121.057 30.7825H110.572C110.267 30.7825 110.018 30.4886 110.018 30.1274C110.018 29.7662 110.267 29.4724 110.572 29.4724H121.057C121.362 29.4724 121.611 29.7662 121.611 30.1274C121.611 30.4886 121.362 30.7825 121.057 30.7825Z" fill="#E6E6E6"/>
<path d="M128.623 332.915C130.209 333.032 131.086 330.703 129.886 329.345L129.767 328.784C129.782 328.739 129.798 328.695 129.814 328.65C131.418 324.129 136.854 324.16 138.444 328.688C139.855 332.706 141.652 336.732 142.095 340.981C142.293 342.857 142.204 344.767 141.852 346.608C145.159 338.068 146.899 328.742 146.899 319.363C146.899 317.007 146.79 314.651 146.567 312.3C146.383 310.378 146.131 308.467 145.803 306.574C144.033 296.339 140.2 286.591 134.672 278.45C132.014 276.732 129.798 274.048 128.459 270.83C127.978 269.669 127.602 268.421 127.423 267.149C127.726 267.196 128.564 261.75 128.335 261.416C128.757 260.66 129.511 260.284 129.972 259.546C132.261 255.877 135.415 256.518 137.062 261.504C140.58 263.603 140.614 267.084 138.455 270.431C137.082 272.561 136.893 275.443 135.689 277.723C135.812 277.911 135.941 278.092 136.065 278.28C138.338 281.726 140.304 285.431 141.962 289.323C141.493 284.998 142.185 279.787 143.364 276.428C144.706 272.6 147.221 269.377 149.436 266.068C152.097 262.094 157.553 263.828 158.022 268.866C158.027 268.915 158.031 268.964 158.035 269.013C157.706 269.232 157.384 269.465 157.069 269.711C155.273 271.116 155.894 274.407 158.022 274.795L158.07 274.804C157.951 276.205 157.748 277.594 157.45 278.96C160.292 291.952 154.157 296.684 145.397 296.896C145.203 297.013 145.015 297.131 144.822 297.242C145.709 300.196 146.418 303.227 146.944 306.298C147.415 309.012 147.742 311.755 147.925 314.51C148.154 317.986 148.134 321.479 147.886 324.95L147.901 324.826C148.53 321.005 150.286 317.435 152.834 314.961C156.631 311.274 161.995 309.917 166.09 306.953C168.062 305.527 170.589 307.37 170.244 310.072L170.228 310.202C169.618 310.495 169.023 310.835 168.448 311.216C168.119 311.435 167.796 311.668 167.481 311.915C165.685 313.319 166.306 316.61 168.434 316.998L168.482 317.007C168.517 317.013 168.547 317.019 168.582 317.025C167.535 319.961 166.078 322.687 164.253 325.037C162.476 336.379 154.844 337.455 146.681 334.152H146.676C145.784 338.748 144.48 343.238 142.804 347.517H128.97C128.921 347.335 128.876 347.147 128.831 346.965C130.111 347.059 131.4 346.971 132.659 346.696C131.633 345.207 130.606 343.706 129.58 342.218C129.555 342.188 129.535 342.159 129.516 342.13C128.995 341.368 128.469 340.612 127.949 339.85L127.948 339.849C127.916 337.51 128.153 335.178 128.623 332.915Z" fill="#F2F2F2"/>
<path d="M0 348.92C0 349.519 0.406886 350 0.913568 350H168.487C168.994 350 169.401 349.519 169.401 348.92C169.401 348.321 168.994 347.84 168.487 347.84H0.913568C0.406886 347.84 0 348.321 0 348.92Z" fill="#CCCCCC"/>
<path d="M67.6925 20.2707H65.4547C58.9081 20.2794 47.7182 31.2261 52.0481 38.9042C48.3507 50.5632 48.216 56.6294 49.7855 59.8043C50.3632 60.973 51.5104 61.5054 52.6526 61.4106C52.8049 61.398 52.9582 61.3941 53.1127 61.4002C54.2193 61.4434 55.7036 67.5931 56.7337 68.0659L59.4679 67.0833L63.9528 61.7854L61.6771 53.7048L57.2737 49.6319L57.8736 40.1993C54.9263 32.1913 58.1328 31.7993 59.9372 29.2161L60.1198 37.5036L62.7041 34.5552C64.8092 34.6197 67.2692 35.6985 68.9046 33.4545C71.8752 29.3459 74.9548 34.3065 78.4635 35.3091L79.5519 34.2905C79.5891 31.98 79.3 29.7491 78.7388 27.7514C78.4746 26.811 77.7994 26.0361 77.771 25.1013C77.6645 21.5934 72.0563 18.1908 67.6925 20.2707Z" fill="#2F2E41"/>
</svg>
