<svg width="18" height="20" viewBox="0 0 18 20" fill="none" xmlns="http://www.w3.org/2000/svg">
<path fill-rule="evenodd" clip-rule="evenodd" d="M5.35002 5.26473C5.35002 3.61639 6.8873 2.11473 9.00002 2.11473C11.1127 2.11473 12.65 3.61639 12.65 5.26473C12.65 6.91308 11.1127 8.41473 9.00002 8.41473C6.8873 8.41473 5.35002 6.91308 5.35002 5.26473ZM9.00002 0.414734C6.14219 0.414734 3.65002 2.4948 3.65002 5.26473C3.65002 8.03467 6.14219 10.1147 9.00002 10.1147C11.8579 10.1147 14.35 8.03467 14.35 5.26473C14.35 2.4948 11.8579 0.414734 9.00002 0.414734ZM2.35002 15.7647C2.35002 15.1947 2.83865 14.5275 4.17554 13.9608C5.44982 13.4206 7.20546 13.1147 9.00002 13.1147C10.7753 13.1147 12.5298 13.472 13.8111 14.0415C14.4527 14.3266 14.9355 14.6473 15.246 14.9666C15.5529 15.2822 15.65 15.5497 15.65 15.7647C15.65 15.8142 15.6331 15.9428 15.3876 16.1468C15.1345 16.3571 14.7113 16.5801 14.0952 16.7796C12.8704 17.1764 11.0919 17.4147 9.00002 17.4147C6.90812 17.4147 5.12967 17.1764 3.90482 16.7796C3.28876 16.5801 2.86552 16.3571 2.61248 16.1468C2.36694 15.9428 2.35002 15.8142 2.35002 15.7647ZM9.00002 11.4147C7.04459 11.4147 5.05023 11.7435 3.51201 12.3956C2.0364 13.0212 0.650024 14.104 0.650024 15.7647C0.650024 16.48 1.03489 17.0462 1.52596 17.4543C2.00952 17.8562 2.65772 18.1626 3.38095 18.3969C4.83467 18.8678 6.80621 19.1147 9.00002 19.1147C11.1938 19.1147 13.1654 18.8678 14.6191 18.3969C15.3423 18.1626 15.9905 17.8562 16.4741 17.4543C16.9652 17.0462 17.35 16.48 17.35 15.7647C17.35 14.9798 16.9784 14.3098 16.4649 13.7816C15.9551 13.2572 15.2661 12.8278 14.5015 12.488C12.9703 11.8075 10.9747 11.4147 9.00002 11.4147Z" fill="#7C8DB5"/>
</svg>
