<svg width="680" height="445" viewBox="0 0 680 445" fill="none" xmlns="http://www.w3.org/2000/svg">
<g filter="url(#filter0_f_363_69)">
<path d="M165.777 62.043C188.026 64.4665 217.612 62.4985 227.562 74.5317C237.511 86.5646 214.319 98.5597 206.335 111.096C198.684 123.11 201.29 138.982 182.461 145.346C163.223 151.848 139.977 144.888 119.046 140.597C97.9391 136.27 73.1006 133.011 63.7262 121.004C54.4059 109.066 64.2877 95.2592 74.5409 83.5925C83.2371 73.6975 97.8191 66.4372 115.314 62.305C131.557 58.4684 148.578 60.1696 165.777 62.043Z" fill="url(#paint0_linear_363_69)"/>
</g>
<g filter="url(#filter1_f_363_69)">
<path d="M555.777 299.043C578.026 301.466 607.612 299.499 617.562 311.532C627.511 323.565 604.319 335.56 596.335 348.096C588.684 360.11 591.29 375.982 572.461 382.346C553.223 388.848 529.977 381.888 509.046 377.597C487.939 373.27 463.101 370.011 453.726 358.004C444.406 346.066 454.288 332.259 464.541 320.593C473.237 310.698 487.819 303.437 505.314 299.305C521.557 295.468 538.578 297.17 555.777 299.043Z" fill="url(#paint1_linear_363_69)"/>
</g>
<path d="M7 355.245C7 355.903 7.67477 356.427 8.51981 356.427H604.48C605.319 356.427 606 355.903 606 355.245C606 354.588 605.325 354.064 604.48 354.064H8.51981C7.68108 354.064 7 354.588 7 355.245Z" fill="#2F2E43"/>
<path d="M504.681 357.215H109.13V98.1161C109.13 91.9897 114.029 87 120.058 87H493.752C499.775 87 504.681 91.9833 504.681 98.1161V357.215Z" fill="#2F2E41"/>
<path d="M537.676 384H76.1253C74.5309 384 73.2264 383.011 72.7915 381.473C72.363 379.942 72.9617 378.411 74.3229 377.585L110.301 355.639H504.944L505.057 355.708L539.541 377.617C540.871 378.461 541.451 379.986 541.01 381.505C540.569 383.017 539.264 384 537.689 384H537.676Z" fill="#DFDFDF"/>
<path d="M494.143 103.544H119.667V339.883H494.143V103.544Z" fill="white"/>
<path d="M508.733 369.82H107.509L127.343 353.276H489.802L508.733 369.82Z" fill="#2F2E41"/>
<path d="M401.74 380.849H212.07L219.261 369.82H394.549L401.74 380.849Z" fill="#2F2E41"/>
<path d="M418.896 196.504H399.174C397.46 196.504 396.066 195.091 396.066 193.353C396.066 191.615 397.46 190.202 399.174 190.202H418.896C420.61 190.202 422.004 191.615 422.004 193.353C422.004 195.091 420.61 196.504 418.896 196.504Z" fill="#DFDFDF"/>
<path d="M441.596 196.504H432.403C430.691 196.504 429.299 195.091 429.299 193.353C429.299 191.615 430.691 190.202 432.403 190.202H441.596C443.308 190.202 444.7 191.615 444.7 193.353C444.7 195.091 443.308 196.504 441.596 196.504Z" fill="#DFDFDF"/>
<path d="M221.025 199.655H160.156C157.049 199.655 154.521 197.005 154.521 193.747C154.521 190.489 157.049 187.838 160.156 187.838H221.025C224.133 187.838 226.66 190.489 226.66 193.747C226.66 197.005 224.133 199.655 221.025 199.655Z" fill="#4ADE80"/>
<path d="M188.343 213.836H158.795C156.89 213.836 155.332 212.423 155.332 210.684C155.332 208.945 156.884 207.533 158.795 207.533H188.343C190.248 207.533 191.807 208.945 191.807 210.684C191.807 212.423 190.254 213.836 188.343 213.836Z" fill="#DFDFDF"/>
<path d="M348.077 228.016H157.93C156.055 228.016 154.521 226.251 154.521 224.077C154.521 221.903 156.049 220.138 157.93 220.138H348.077C349.952 220.138 351.486 221.903 351.486 224.077C351.486 226.251 349.958 228.016 348.077 228.016Z" fill="#DFDFDF"/>
<path d="M331.074 236.682H157.917C156.049 236.682 154.521 235.27 154.521 233.531C154.521 231.792 156.043 230.379 157.917 230.379H331.068C332.936 230.379 334.464 231.792 334.464 233.531C334.464 235.27 332.942 236.682 331.068 236.682H331.074Z" fill="#DFDFDF"/>
<path d="M536.292 184.781L526.566 187.838V174.446H535.394L536.292 184.781Z" fill="#F2A7AA"/>
<path d="M527.781 177.597C532.93 177.597 537.103 173.541 537.103 168.537C537.103 163.534 532.93 159.478 527.781 159.478C522.633 159.478 518.46 163.534 518.46 168.537C518.46 173.541 522.633 177.597 527.781 177.597Z" fill="#F2A7AA"/>
<path d="M530.534 167.472C528.975 167.427 527.954 165.8 527.352 164.324C526.75 162.841 526.122 161.143 524.683 160.529C523.504 160.026 521.418 163.403 520.487 162.508C519.517 161.574 520.461 156.753 521.495 155.891C522.528 155.029 523.935 154.859 525.266 154.794C528.506 154.637 531.77 154.911 534.946 155.591C536.912 156.015 538.934 156.649 540.354 158.112C542.148 159.967 542.611 162.769 542.737 165.389C542.87 168.067 542.718 170.875 541.457 173.214C540.195 175.559 537.545 177.29 535.01 176.689C534.756 175.265 535.01 173.808 535.111 172.365C535.206 170.921 535.111 169.367 534.255 168.217C533.4 167.067 531.574 166.617 530.579 167.636" fill="#36344E"/>
<path d="M541.818 170.148C542.737 169.411 543.831 168.804 544.963 168.954C546.182 169.118 547.213 170.216 547.526 171.513C547.838 172.809 547.488 174.242 546.732 175.299C545.975 176.357 544.856 177.06 543.668 177.415C542.981 177.619 542.231 177.701 541.574 177.394C540.611 176.944 540.092 175.593 540.468 174.528" fill="#36344E"/>
<path d="M532.24 335.156H524.134V348.549H532.24V335.156Z" fill="#F2A7AA"/>
<path d="M515.668 355.639C514.746 355.639 513.926 355.614 513.309 355.557C510.981 355.341 508.756 353.628 507.637 352.626C507.134 352.175 506.975 351.458 507.236 350.836C507.421 350.392 507.796 350.062 508.26 349.929L514.415 348.172L524.379 341.459L524.487 341.656C524.532 341.732 525.505 343.489 525.835 344.676C525.963 345.126 525.924 345.507 525.74 345.799C525.607 346.002 525.428 346.116 525.276 346.186C525.454 346.376 526.02 346.757 527.762 347.036C530.299 347.442 530.84 344.809 530.859 344.701L530.878 344.612L530.954 344.562C532.162 343.781 532.906 343.432 533.167 343.508C533.326 343.559 533.593 343.635 534.318 350.798C534.388 351.02 534.897 352.67 534.553 354.244C534.178 355.957 526.675 355.367 525.174 355.233C525.13 355.233 519.515 355.639 515.661 355.639H515.668Z" fill="#36344E"/>
<path d="M557.625 325.692L550.246 330.367L556.774 340.999L564.153 336.324L557.625 325.692Z" fill="#F2A7AA"/>
<path d="M548.245 354.064C547.245 354.064 546.325 353.944 545.671 353.825C545.029 353.712 544.523 353.19 544.418 352.531C544.344 352.059 544.479 351.588 544.794 351.23L548.961 346.537L553.715 335.686L553.906 335.792C553.98 335.83 555.69 336.798 556.573 337.627C556.906 337.941 557.073 338.274 557.067 338.62C557.067 338.858 556.974 339.053 556.888 339.185C557.135 339.248 557.795 339.273 559.375 338.595C561.678 337.608 560.764 335.114 560.727 335.007L560.697 334.925L560.734 334.844C561.332 333.556 561.758 332.871 562.011 332.802C562.166 332.758 562.431 332.688 566.709 338.324C566.882 338.475 568.148 339.594 568.679 341.102C569.253 342.735 562.765 346.166 561.462 346.838C561.419 346.87 554.634 351.89 551.85 353.316C550.745 353.882 549.436 354.057 548.245 354.057V354.064Z" fill="#36344E"/>
<path d="M539.059 231.167H514.97L512.786 253.989L522.351 338.308H534.648L529.732 289.607L549.678 333.574L560.609 325.785L545.03 284.74C545.03 284.74 550.595 248.982 546.222 240.075C541.848 231.167 539.059 231.167 539.059 231.167Z" fill="#36344E"/>
<path d="M551.693 231.955H512.786L524.461 181.536H541.408L551.693 231.955Z" fill="#4ADE80"/>
<path d="M503.228 180.59C502.613 177.601 503.736 174.867 505.738 174.489C507.74 174.111 509.855 176.225 510.47 179.22C510.734 180.41 510.69 181.644 510.351 182.822L512.786 195.524L506.498 196.504L504.766 183.882C503.987 182.921 503.46 181.792 503.228 180.59Z" fill="#F2A7AA"/>
<path d="M540.174 181.536H525.576L515.736 201.798L512.024 186.619L503.87 187.512C503.87 187.512 505.797 217.176 514.236 216.174C522.67 215.173 542.343 188.443 540.18 181.542L540.174 181.536Z" fill="#4ADE80"/>
<path d="M557.198 258.679C557.813 261.774 556.69 264.605 554.688 264.997C552.686 265.389 550.571 263.199 549.956 260.098C549.692 258.865 549.736 257.587 550.075 256.367L547.64 243.211L553.929 242.196L555.661 255.269C556.439 256.265 556.966 257.433 557.198 258.679Z" fill="#F2A7AA"/>
<path d="M532.246 181.698C532.246 181.698 540.833 181.333 541.276 181.698C543.617 183.609 557.367 252.438 557.367 252.438H548.657L532.24 181.698H532.246Z" fill="#4ADE80"/>
<defs>
<filter id="filter0_f_363_69" x="0" y="0" width="290" height="208" filterUnits="userSpaceOnUse" color-interpolation-filters="sRGB">
<feFlood flood-opacity="0" result="BackgroundImageFix"/>
<feBlend mode="normal" in="SourceGraphic" in2="BackgroundImageFix" result="shape"/>
<feGaussianBlur stdDeviation="30" result="effect1_foregroundBlur_363_69"/>
</filter>
<filter id="filter1_f_363_69" x="390" y="237" width="290" height="208" filterUnits="userSpaceOnUse" color-interpolation-filters="sRGB">
<feFlood flood-opacity="0" result="BackgroundImageFix"/>
<feBlend mode="normal" in="SourceGraphic" in2="BackgroundImageFix" result="shape"/>
<feGaussianBlur stdDeviation="30" result="effect1_foregroundBlur_363_69"/>
</filter>
<linearGradient id="paint0_linear_363_69" x1="145" y1="60" x2="145" y2="148" gradientUnits="userSpaceOnUse">
<stop stop-color="#C1FF72"/>
<stop offset="1" stop-color="#EFFFDB"/>
</linearGradient>
<linearGradient id="paint1_linear_363_69" x1="535" y1="297" x2="535" y2="385" gradientUnits="userSpaceOnUse">
<stop stop-color="#C1FF72"/>
<stop offset="1" stop-color="#EFFFDB"/>
</linearGradient>
</defs>
</svg>
