<svg width="24" height="25" viewBox="0 0 24 25" fill="none" xmlns="http://www.w3.org/2000/svg">
<path fill-rule="evenodd" clip-rule="evenodd" d="M17.85 7.48367C17.85 6.9146 17.8507 6.5049 17.8782 6.18473C17.9062 5.85774 17.9555 5.73778 17.9789 5.69877C17.9849 5.6887 17.9873 5.68697 17.9905 5.68466L17.991 5.68431C17.9974 5.67955 18.0249 5.66109 18.0944 5.63962C18.2503 5.59151 18.5213 5.5559 19 5.5559C19.4788 5.5559 19.7497 5.59151 19.9056 5.63962C19.9752 5.66109 20.0026 5.67955 20.0091 5.68431L20.0096 5.68466C20.0127 5.68697 20.0151 5.6887 20.0212 5.69877C20.0446 5.73778 20.0939 5.85774 20.1219 6.18473C20.1493 6.5049 20.15 6.9146 20.15 7.48367V7.49674V7.50989V7.52312V7.53644V7.54985V7.56334V7.57692V7.59058V7.60432V7.61815V7.63206V7.64605V7.66013V7.67428V7.68852V7.70284V7.71725V7.73173V7.74629V7.76093V7.77566V7.79046V7.80534V7.8203V7.83534V7.85045V7.86564V7.88092V7.89626V7.91169V7.92719V7.94277V7.95842V7.97415V7.98995V8.00583V8.02178V8.0378V8.0539V8.07008V8.08632V8.10264V8.11903V8.13549V8.15203V8.16863V8.18531V8.20206V8.21887V8.23576V8.25272V8.26974V8.28684V8.304V8.32123V8.33853V8.3559V8.37333V8.39084V8.4084V8.42604V8.44374V8.4615V8.47933V8.49723V8.51519V8.53321V8.5513V8.56945V8.58767V8.60594V8.62428V8.64268V8.66115V8.67967V8.69826V8.71691V8.73562V8.75438V8.77321V8.7921V8.81104V8.83005V8.84911V8.86823V8.88741V8.90665V8.92594V8.94529V8.9647V8.98416V9.00368V9.02325V9.04288V9.06257V9.08231V9.1021V9.12194V9.14184V9.1618V9.1818V9.20186V9.22197V9.24213V9.26234V9.2826V9.30292V9.32328V9.3437V9.36416V9.38467V9.40524V9.42585V9.44651V9.46721V9.48797V9.50877V9.52962V9.55052V9.57146V9.59244V9.61348V9.63456V9.65568V9.67685V9.69806V9.71932V9.74062V9.76196V9.78335V9.80478V9.82625V9.84776V9.86931V9.89091V9.91255V9.93422V9.95594V9.9777V9.99949V10.0213V10.0432V10.0651V10.0871V10.1091V10.1311V10.1531V10.1752V10.1974V10.2196V10.2418V10.264V10.2863V10.3086V10.331V10.3533V10.3758V10.3982V10.4207V10.4432V10.4657V10.4883V10.5109V10.5336V10.5563V10.579V10.6017V10.6245V10.6473V10.6701V10.6929V10.7158V10.7387V10.7617V10.7846V10.8076V10.8307V10.8537V10.8768V10.8999V10.923V10.9462V10.9693V10.9925V11.0158V11.039V11.0623V11.0856V11.1089V11.1322V11.1556V11.179V11.2024V11.2258V11.2493V11.2727V11.2962V11.3197V11.3433V11.3668V11.3904V11.414V11.4376V11.4612V11.4848V11.5085V11.5322V11.5559V11.5796V11.6033V11.627V11.6508V11.6746V11.6983V11.7221V11.746V11.7698V11.7936V11.8175V11.8413V11.8652V11.8891V11.913V11.9369V11.9608V11.9848V12.0087V12.0327V12.0566V12.0806V12.1046V12.1285V12.1525V12.1765V12.2006V12.2246V12.2486V12.2726V12.2967V12.3207V12.3448V12.3688V12.3929V12.4169V12.441V12.4651V12.4891V12.5132V12.5373V12.5614V12.5855V12.6095V12.6336V12.6577V12.6818V12.7059V12.73V12.7541V12.7782V12.8022V12.8263V12.8504V12.8745V12.8986V12.9227V12.9467V12.9708V12.9949V13.0189V13.043V13.067V13.0911V13.1151V13.1392V13.1632V13.1872V13.2112V13.2352V13.2592V13.2832V13.3072V13.3312V13.3552V13.3791V13.4031V13.427V13.451V13.4749V13.4988V13.5227V13.5466V13.5705V13.5943V13.6182V13.642V13.6658V13.6896V13.7134V13.7372V13.761V13.7847V13.8085V13.8322V13.8559V13.8796V13.9033V13.9269V13.9506V13.9742V13.9978V14.0214V14.045V14.0685V14.092V14.1156V14.139V14.1625V14.186V14.2094V14.2328V14.2562V14.2796V14.3029V14.3262V14.3495V14.3728V14.396V14.4193V14.4425V14.4656V14.4888V14.5119V14.535V14.5581V14.5811V14.6042V14.6271V14.6501V14.6731V14.696V14.7188V14.7417V14.7645V14.7873V14.8101V14.8328V14.8555V14.8782V14.9008V14.9235V14.946V14.9686V14.9911V15.0136V15.036V15.0585V15.0808V15.1032V15.1255V15.1478V15.17V15.1922V15.2144V15.2365V15.2586V15.2807V15.3027V15.3247V15.3467V15.3686V15.3905V15.4123V15.4341V15.4559V15.4776V15.4992V15.5209V15.5425V15.564V15.5855V15.607V15.6284V15.6498V15.6712V15.6925V15.7137V15.7349V15.7561V15.7772V15.7983V15.8193V15.8403V15.8613V15.8822V15.903V15.9238V15.9446V15.9653V15.9859V16.0066V16.0271V16.0476V16.0681V16.0885V16.1089V16.1292V16.1494V16.1697V16.1898V16.2099V16.23V16.25V16.2699V16.2898V16.3097V16.3295V16.3492V16.3689V16.3885V16.4081V16.4276V16.4471V16.4665V16.4858V16.5051V16.5244V16.5436V16.5627V16.5817V16.6007V16.6197V16.6386V16.6574V16.6762V16.6949V16.7135V16.7321V16.7506V16.7691V16.7875V16.8058V16.8241V16.8423V16.8605V16.8786V16.8966V16.9146V16.9325V16.9503V16.9681V16.9858V17.0034V17.021V17.0385V17.0559V17.0733V17.0906V17.1078V17.125V17.142V17.1591V17.176V17.1929V17.2097V17.2265V17.2432V17.2598V17.2763V17.2928V17.3091V17.3255V17.3417V17.3579V17.374V17.39V17.406V17.4218V17.4376V17.4534V17.469V17.4846V17.5001V17.5155V17.5309V17.5461V17.5613V17.5765V17.5915V17.6065V17.6213V17.6361V17.6509V17.6655V17.6801V17.6945V17.7089V17.7233V17.7375V17.7517V17.7657V17.7797V17.7936V17.8075V17.8212V17.8349V17.8484V17.8619V17.8753V17.8887V17.9019V17.9151V17.9281C20.15 18.6003 20.1119 19.0556 20.049 19.3645C19.9858 19.6748 19.9123 19.7624 19.8998 19.7757C19.8953 19.7805 19.8912 19.7843 19.8782 19.7904C19.8612 19.7984 19.8241 19.8123 19.7516 19.8248C19.5859 19.8533 19.3687 19.8559 19 19.8559C18.6256 19.8559 18.4056 19.8533 18.2388 19.8247C18.1657 19.8122 18.129 19.7983 18.113 19.7907C18.1009 19.785 18.098 19.782 18.0946 19.7783C18.0836 19.7665 18.0109 19.6801 17.9487 19.368C17.8869 19.0579 17.85 18.6015 17.85 17.9281V7.48367ZM19 3.8559C18.0337 3.8559 17.0408 3.95804 16.5212 4.82413C16.2946 5.20178 16.2189 5.63739 16.1844 6.03956C16.15 6.44066 16.15 6.92261 16.15 7.45231V7.45232V7.48367V17.9281C16.15 18.6436 16.1876 19.2289 16.2815 19.7001C16.3749 20.1692 16.539 20.6036 16.8525 20.9391C17.1818 21.2914 17.5835 21.4372 17.9517 21.5003C18.2776 21.5561 18.6414 21.556 18.9597 21.5559L19 21.5559L19.0397 21.5559C19.3532 21.556 19.7146 21.5561 20.0398 21.5002C20.4069 21.437 20.8073 21.2915 21.137 20.9416C21.4517 20.6077 21.619 20.1745 21.7148 19.7036C21.811 19.2312 21.85 18.6449 21.85 17.9281V17.9151V17.9019V17.8887V17.8753V17.8619V17.8484V17.8349V17.8212V17.8075V17.7936V17.7797V17.7657V17.7517V17.7375V17.7233V17.7089V17.6945V17.6801V17.6655V17.6509V17.6361V17.6213V17.6065V17.5915V17.5765V17.5613V17.5461V17.5309V17.5155V17.5001V17.4846V17.469V17.4534V17.4376V17.4218V17.406V17.39V17.374V17.3579V17.3417V17.3255V17.3091V17.2928V17.2763V17.2598V17.2432V17.2265V17.2097V17.1929V17.176V17.1591V17.142V17.125V17.1078V17.0906V17.0733V17.0559V17.0385V17.021V17.0034V16.9858V16.9681V16.9503V16.9325V16.9146V16.8966V16.8786V16.8605V16.8423V16.8241V16.8058V16.7875V16.7691V16.7506V16.7321V16.7135V16.6949V16.6762V16.6574V16.6386V16.6197V16.6007V16.5817V16.5627V16.5436V16.5244V16.5051V16.4858V16.4665V16.4471V16.4276V16.4081V16.3885V16.3689V16.3492V16.3295V16.3097V16.2898V16.2699V16.25V16.23V16.2099V16.1898V16.1697V16.1494V16.1292V16.1089V16.0885V16.0681V16.0476V16.0271V16.0066V15.9859V15.9653V15.9446V15.9238V15.903V15.8822V15.8613V15.8403V15.8193V15.7983V15.7772V15.7561V15.7349V15.7137V15.6925V15.6712V15.6498V15.6284V15.607V15.5855V15.564V15.5425V15.5209V15.4992V15.4776V15.4559V15.4341V15.4123V15.3905V15.3686V15.3467V15.3247V15.3027V15.2807V15.2586V15.2365V15.2144V15.1922V15.17V15.1478V15.1255V15.1032V15.0808V15.0585V15.036V15.0136V14.9911V14.9686V14.946V14.9235V14.9008V14.8782V14.8555V14.8328V14.8101V14.7873V14.7645V14.7417V14.7188V14.696V14.6731V14.6501V14.6271V14.6042V14.5811V14.5581V14.535V14.5119V14.4888V14.4656V14.4425V14.4193V14.396V14.3728V14.3495V14.3262V14.3029V14.2796V14.2562V14.2328V14.2094V14.186V14.1625V14.139V14.1156V14.092V14.0685V14.045V14.0214V13.9978V13.9742V13.9506V13.9269V13.9033V13.8796V13.8559V13.8322V13.8085V13.7847V13.761V13.7372V13.7134V13.6896V13.6658V13.642V13.6182V13.5943V13.5705V13.5466V13.5227V13.4988V13.4749V13.451V13.427V13.4031V13.3791V13.3552V13.3312V13.3072V13.2832V13.2592V13.2352V13.2112V13.1872V13.1632V13.1392V13.1151V13.0911V13.067V13.043V13.0189V12.9949V12.9708V12.9467V12.9227V12.8986V12.8745V12.8504V12.8263V12.8022V12.7782V12.7541V12.73V12.7059V12.6818V12.6577V12.6336V12.6095V12.5855V12.5614V12.5373V12.5132V12.4891V12.4651V12.441V12.4169V12.3929V12.3688V12.3448V12.3207V12.2967V12.2726V12.2486V12.2246V12.2006V12.1765V12.1525V12.1285V12.1046V12.0806V12.0566V12.0327V12.0087V11.9848V11.9608V11.9369V11.913V11.8891V11.8652V11.8413V11.8175V11.7936V11.7698V11.746V11.7221V11.6983V11.6746V11.6508V11.627V11.6033V11.5796V11.5559V11.5322V11.5085V11.4848V11.4612V11.4376V11.414V11.3904V11.3668V11.3433V11.3197V11.2962V11.2727V11.2493V11.2258V11.2024V11.179V11.1556V11.1322V11.1089V11.0856V11.0623V11.039V11.0158V10.9925V10.9693V10.9462V10.923V10.8999V10.8768V10.8537V10.8307V10.8076V10.7846V10.7617V10.7387V10.7158V10.6929V10.6701V10.6473V10.6245V10.6017V10.579V10.5563V10.5336V10.5109V10.4883V10.4657V10.4432V10.4207V10.3982V10.3758V10.3533V10.331V10.3086V10.2863V10.264V10.2418V10.2196V10.1974V10.1752V10.1531V10.1311V10.1091V10.0871V10.0651V10.0432V10.0213V9.99949V9.9777V9.95594V9.93422V9.91255V9.89091V9.86931V9.84776V9.82625V9.80478V9.78335V9.76196V9.74062V9.71932V9.69806V9.67685V9.65568V9.63456V9.61348V9.59244V9.57146V9.55052V9.52962V9.50877V9.48797V9.46721V9.44651V9.42585V9.40524V9.38467V9.36416V9.3437V9.32328V9.30292V9.2826V9.26234V9.24213V9.22197V9.20186V9.1818V9.1618V9.14184V9.12194V9.1021V9.08231V9.06257V9.04288V9.02325V9.00368V8.98416V8.9647V8.94529V8.92594V8.90665V8.88741V8.86823V8.84911V8.83005V8.81104V8.7921V8.77321V8.75438V8.73562V8.71691V8.69826V8.67967V8.66115V8.64268V8.62428V8.60594V8.58767V8.56945V8.5513V8.53321V8.51519V8.49723V8.47933V8.4615V8.44374V8.42604V8.4084V8.39084V8.37333V8.3559V8.33853V8.32123V8.304V8.28684V8.26974V8.25272V8.23576V8.21887V8.20206V8.18531V8.16863V8.15203V8.13549V8.11903V8.10264V8.08632V8.07008V8.0539V8.0378V8.02178V8.00583V7.98995V7.97415V7.95842V7.94277V7.92719V7.91169V7.89626V7.88092V7.86564V7.85045V7.83534V7.8203V7.80534V7.79046V7.77566V7.76093V7.74629V7.73173V7.71725V7.70284V7.68852V7.67428V7.66013V7.64605V7.63206V7.61815V7.60432V7.59058V7.57692V7.56334V7.54985V7.53644V7.52312V7.50989V7.49674V7.48367L21.85 7.45231C21.85 6.92261 21.8501 6.44066 21.8157 6.03956C21.7812 5.63739 21.7055 5.20178 21.4789 4.82413C20.9592 3.95804 19.9663 3.8559 19 3.8559ZM10.879 10.2059C10.854 10.4313 10.853 10.6938 10.853 11.0392L10.853 14.7059L10.853 18.3726C10.853 18.3807 10.8529 18.3889 10.8527 18.3971C10.8279 19.2566 10.9843 19.5471 11.0773 19.6467C11.1577 19.7328 11.3596 19.8559 11.9997 19.8559C12.6255 19.8559 12.8337 19.7343 12.9193 19.6435C13.0145 19.5427 13.1743 19.2516 13.1469 18.3998C13.1466 18.3907 13.1465 18.3817 13.1465 18.3726V14.7059L13.1465 11.0392C13.1465 10.6938 13.1455 10.4313 13.1205 10.2059C13.0958 9.98368 13.054 9.87 13.0177 9.80936L13.0165 9.8073C12.9931 9.76757 12.8682 9.5559 11.9997 9.5559C11.1313 9.5559 11.0064 9.76758 10.983 9.8073L10.9818 9.80936C10.9454 9.87 10.9037 9.98368 10.879 10.2059ZM9.52341 8.93577C10.0024 8.13617 10.8878 7.8559 11.9997 7.8559C13.1117 7.8559 13.9971 8.13617 14.4761 8.93577C14.6894 9.29179 14.7724 9.67811 14.8101 10.0184C14.8465 10.3469 14.8465 10.6995 14.8465 11.0145L14.8465 11.0392L14.8465 14.7059V18.3593C14.8761 19.3352 14.7263 20.2054 14.156 20.8099C13.5736 21.4275 12.754 21.5559 11.9997 21.5559C11.2382 21.5559 10.4154 21.429 9.83455 20.8067C9.26881 20.2006 9.12652 19.3294 9.15301 18.3606L9.15301 14.7059L9.153 11.0392L9.153 11.0145C9.15298 10.6995 9.15295 10.3469 9.18938 10.0184C9.22713 9.67811 9.31014 9.29179 9.52341 8.93577ZM3.87711 15.2255C3.85089 15.4893 3.85003 15.8077 3.85003 16.2337V19.0002C3.85003 19.4807 3.9662 19.6122 4.02252 19.6598C4.11412 19.7373 4.36207 19.8559 5.00003 19.8559C5.62373 19.8559 5.87547 19.7386 5.97207 19.6576C6.03288 19.6066 6.15003 19.4724 6.15003 19.0002V18.9931V18.986V18.9789V18.9718V18.9648V18.9577V18.9507V18.9437V18.9367V18.9297V18.9227V18.9158V18.9088V18.9019V18.895V18.8881V18.8812V18.8743V18.8675V18.8606V18.8538V18.847V18.8402V18.8334V18.8266V18.8198V18.8131V18.8063V18.7996V18.7929V18.7862V18.7795V18.7729V18.7662V18.7595V18.7529V18.7463V18.7397V18.7331V18.7265V18.7199V18.7134V18.7068V18.7003V18.6938V18.6873V18.6808V18.6743V18.6678V18.6614V18.6549V18.6485V18.6421V18.6357V18.6293V18.6229V18.6165V18.6102V18.6038V18.5975V18.5912V18.5849V18.5786V18.5723V18.566V18.5597V18.5535V18.5472V18.541V18.5348V18.5286V18.5224V18.5162V18.51V18.5038V18.4977V18.4916V18.4854V18.4793V18.4732V18.4671V18.461V18.4549V18.4489V18.4428V18.4368V18.4307V18.4247V18.4187V18.4127V18.4067V18.4007V18.3948V18.3888V18.3828V18.3769V18.371V18.3651V18.3592V18.3533V18.3474V18.3415V18.3356V18.3298V18.3239V18.3181V18.3122V18.3064V18.3006V18.2948V18.289V18.2832V18.2774V18.2717V18.2659V18.2602V18.2544V18.2487V18.243V18.2373V18.2316V18.2259V18.2202V18.2145V18.2089V18.2032V18.1976V18.1919V18.1863V18.1807V18.1751V18.1695V18.1639V18.1583V18.1527V18.1471V18.1416V18.136V18.1305V18.1249V18.1194V18.1139V18.1084V18.1029V18.0974V18.0919V18.0864V18.0809V18.0755V18.07V18.0646V18.0591V18.0537V18.0483V18.0428V18.0374V18.032V18.0266V18.0212V18.0159V18.0105V18.0051V17.9997V17.9944V17.989V17.9837V17.9784V17.973V17.9677V17.9624V17.9571V17.9518V17.9465V17.9412V17.9359V17.9307V17.9254V17.9201V17.9149V17.9096V17.9044V17.8992V17.8939V17.8887V17.8835V17.8783V17.8731V17.8679V17.8627V17.8575V17.8523V17.8471V17.842V17.8368V17.8316V17.8265V17.8213V17.8162V17.8111V17.8059V17.8008V17.7957V17.7906V17.7855V17.7804V17.7753V17.7702V17.7651V17.76V17.7549V17.7498V17.7448V17.7397V17.7346V17.7296V17.7245V17.7195V17.7144V17.7094V17.7044V17.6993V17.6943V17.6893V17.6843V17.6793V17.6743V17.6693V17.6643V17.6593V17.6543V17.6493V17.6443V17.6393V17.6344V17.6294V17.6244V17.6194V17.6145V17.6095V17.6046V17.5996V17.5947V17.5897V17.5848V17.5799V17.5749V17.57V17.5651V17.5602V17.5552V17.5503V17.5454V17.5405V17.5356V17.5307V17.5258V17.5209V17.516V17.5111V17.5062V17.5013V17.4964V17.4915V17.4867V17.4818V17.4769V17.472V17.4672V17.4623V17.4574V17.4526V17.4477V17.4428V17.438V17.4331V17.4283V17.4234V17.4186V17.4137V17.4089V17.404V17.3992V17.3943V17.3895V17.3846V17.3798V17.375V17.3701V17.3653V17.3605V17.3556V17.3508V17.346V17.3411V17.3363V17.3315V17.3267V17.3218V17.317V17.3122V17.3074V17.3025V17.2977V17.2929V17.2881V17.2833V17.2784V17.2736V17.2688V17.264V17.2592V17.2544V17.2495V17.2447V17.2399V17.2351V17.2303V17.2255V17.2206V17.2158V17.211V17.2062V17.2014V17.1966V17.1917V17.1869V17.1821V17.1773V17.1725V17.1676V17.1628V17.158V17.1532V17.1484V17.1435V17.1387V17.1339V17.1291V17.1242V17.1194V17.1146V17.1097V17.1049V17.1001V17.0952V17.0904V17.0856V17.0807V17.0759V17.071V17.0662V17.0614V17.0565V17.0517V17.0468V17.042V17.0371V17.0322V17.0274V17.0225V17.0177V17.0128V17.0079V17.0031V16.9982V16.9933V16.9885V16.9836V16.9787V16.9738V16.9689V16.964V16.9592V16.9543V16.9494V16.9445V16.9396V16.9347V16.9298V16.9249V16.92V16.915V16.9101V16.9052V16.9003V16.8953V16.8904V16.8855V16.8806V16.8756V16.8707V16.8657V16.8608V16.8558V16.8509V16.8459V16.8409V16.836V16.831V16.826V16.821V16.8161V16.8111V16.8061V16.8011V16.7961V16.7911V16.7861V16.7811V16.7761V16.771V16.766V16.761V16.7559V16.7509V16.7459V16.7408V16.7358V16.7307V16.7256V16.7206V16.7155V16.7104V16.7054V16.7003V16.6952V16.6901V16.685V16.6799V16.6748V16.6697V16.6645V16.6594V16.6543V16.6491V16.644V16.6388V16.6337V16.6285V16.6234V16.6182V16.613V16.6078V16.6026V16.5975V16.5923V16.587V16.5818V16.5766V16.5714V16.5662V16.5609V16.5557V16.5504V16.5452V16.5399V16.5347V16.5294V16.5241V16.5188V16.5135V16.5082V16.5029V16.4976V16.4923V16.4869V16.4816V16.4763V16.4709V16.4656V16.4602V16.4548V16.4495V16.4441V16.4387V16.4333V16.4279V16.4225V16.417V16.4116V16.4062V16.4007V16.3953V16.3898V16.3844V16.3789V16.3734V16.3679V16.3624V16.3569V16.3514V16.3459V16.3403V16.3348V16.3293V16.3237V16.3181V16.3126V16.307V16.3014V16.2958V16.2902V16.2846V16.279V16.2733V16.2677V16.262V16.2564V16.2507V16.2488L6.14311 16.0465V16.0465C6.13205 15.7173 6.12341 15.4599 6.09885 15.2328C6.06936 14.9602 6.02495 14.8331 5.98961 14.7712L5.98894 14.7697C5.97993 14.7496 5.89336 14.5559 5.00003 14.5559C4.10278 14.5559 3.9983 14.7517 3.98392 14.7787L3.98282 14.7807C3.94834 14.8394 3.90328 14.9622 3.87711 15.2255ZM2.51722 13.9193C3.00748 13.0852 3.92522 12.8559 5.00003 12.8559C6.07679 12.8559 6.98578 13.0865 7.46626 13.9288C7.67355 14.2922 7.75045 14.6938 7.78899 15.05C7.82101 15.3461 7.83207 15.6811 7.84295 16.0105C7.84508 16.0751 7.84721 16.1395 7.84949 16.2034L7.84978 16.2131L7.85003 16.2337V16.2394V16.245V16.2507V16.2564V16.262V16.2677V16.2733V16.279V16.2846V16.2902V16.2958V16.3014V16.307V16.3126V16.3181V16.3237V16.3293V16.3348V16.3403V16.3459V16.3514V16.3569V16.3624V16.3679V16.3734V16.3789V16.3844V16.3898V16.3953V16.4007V16.4062V16.4116V16.417V16.4225V16.4279V16.4333V16.4387V16.4441V16.4495V16.4548V16.4602V16.4656V16.4709V16.4763V16.4816V16.4869V16.4923V16.4976V16.5029V16.5082V16.5135V16.5188V16.5241V16.5294V16.5347V16.5399V16.5452V16.5504V16.5557V16.5609V16.5662V16.5714V16.5766V16.5818V16.587V16.5923V16.5975V16.6026V16.6078V16.613V16.6182V16.6234V16.6285V16.6337V16.6388V16.644V16.6491V16.6543V16.6594V16.6645V16.6697V16.6748V16.6799V16.685V16.6901V16.6952V16.7003V16.7054V16.7104V16.7155V16.7206V16.7256V16.7307V16.7358V16.7408V16.7459V16.7509V16.7559V16.761V16.766V16.771V16.7761V16.7811V16.7861V16.7911V16.7961V16.8011V16.8061V16.8111V16.8161V16.821V16.826V16.831V16.836V16.8409V16.8459V16.8509V16.8558V16.8608V16.8657V16.8707V16.8756V16.8806V16.8855V16.8904V16.8953V16.9003V16.9052V16.9101V16.915V16.92V16.9249V16.9298V16.9347V16.9396V16.9445V16.9494V16.9543V16.9592V16.964V16.9689V16.9738V16.9787V16.9836V16.9885V16.9933V16.9982V17.0031V17.0079V17.0128V17.0177V17.0225V17.0274V17.0322V17.0371V17.042V17.0468V17.0517V17.0565V17.0614V17.0662V17.071V17.0759V17.0807V17.0856V17.0904V17.0952V17.1001V17.1049V17.1097V17.1146V17.1194V17.1242V17.1291V17.1339V17.1387V17.1435V17.1484V17.1532V17.158V17.1628V17.1676V17.1725V17.1773V17.1821V17.1869V17.1917V17.1966V17.2014V17.2062V17.211V17.2158V17.2206V17.2255V17.2303V17.2351V17.2399V17.2447V17.2495V17.2544V17.2592V17.264V17.2688V17.2736V17.2784V17.2833V17.2881V17.2929V17.2977V17.3025V17.3074V17.3122V17.317V17.3218V17.3267V17.3315V17.3363V17.3411V17.346V17.3508V17.3556V17.3605V17.3653V17.3701V17.375V17.3798V17.3846V17.3895V17.3943V17.3992V17.404V17.4089V17.4137V17.4186V17.4234V17.4283V17.4331V17.438V17.4428V17.4477V17.4526V17.4574V17.4623V17.4672V17.472V17.4769V17.4818V17.4867V17.4915V17.4964V17.5013V17.5062V17.5111V17.516V17.5209V17.5258V17.5307V17.5356V17.5405V17.5454V17.5503V17.5552V17.5602V17.5651V17.57V17.5749V17.5799V17.5848V17.5897V17.5947V17.5996V17.6046V17.6095V17.6145V17.6194V17.6244V17.6294V17.6344V17.6393V17.6443V17.6493V17.6543V17.6593V17.6643V17.6693V17.6743V17.6793V17.6843V17.6893V17.6943V17.6993V17.7044V17.7094V17.7144V17.7195V17.7245V17.7296V17.7346V17.7397V17.7448V17.7498V17.7549V17.76V17.7651V17.7702V17.7753V17.7804V17.7855V17.7906V17.7957V17.8008V17.8059V17.8111V17.8162V17.8213V17.8265V17.8316V17.8368V17.842V17.8471V17.8523V17.8575V17.8627V17.8679V17.8731V17.8783V17.8835V17.8887V17.8939V17.8992V17.9044V17.9096V17.9149V17.9201V17.9254V17.9307V17.9359V17.9412V17.9465V17.9518V17.9571V17.9624V17.9677V17.973V17.9784V17.9837V17.989V17.9944V17.9997V18.0051V18.0105V18.0159V18.0212V18.0266V18.032V18.0374V18.0428V18.0483V18.0537V18.0591V18.0646V18.07V18.0755V18.0809V18.0864V18.0919V18.0974V18.1029V18.1084V18.1139V18.1194V18.1249V18.1305V18.136V18.1416V18.1471V18.1527V18.1583V18.1639V18.1695V18.1751V18.1807V18.1863V18.1919V18.1976V18.2032V18.2089V18.2145V18.2202V18.2259V18.2316V18.2373V18.243V18.2487V18.2544V18.2602V18.2659V18.2717V18.2774V18.2832V18.289V18.2948V18.3006V18.3064V18.3122V18.3181V18.3239V18.3298V18.3356V18.3415V18.3474V18.3533V18.3592V18.3651V18.371V18.3769V18.3828V18.3888V18.3948V18.4007V18.4067V18.4127V18.4187V18.4247V18.4307V18.4368V18.4428V18.4489V18.4549V18.461V18.4671V18.4732V18.4793V18.4854V18.4916V18.4977V18.5038V18.51V18.5162V18.5224V18.5286V18.5348V18.541V18.5472V18.5535V18.5597V18.566V18.5723V18.5786V18.5849V18.5912V18.5975V18.6038V18.6102V18.6165V18.6229V18.6293V18.6357V18.6421V18.6485V18.6549V18.6614V18.6678V18.6743V18.6808V18.6873V18.6938V18.7003V18.7068V18.7134V18.7199V18.7265V18.7331V18.7397V18.7463V18.7529V18.7595V18.7662V18.7729V18.7795V18.7862V18.7929V18.7996V18.8063V18.8131V18.8198V18.8266V18.8334V18.8402V18.847V18.8538V18.8606V18.8675V18.8743V18.8812V18.8881V18.895V18.9019V18.9088V18.9158V18.9227V18.9297V18.9367V18.9437V18.9507V18.9577V18.9648V18.9718V18.9789V18.986V18.9931V19.0002C7.85003 19.7433 7.65832 20.4619 7.0647 20.96C6.50686 21.428 5.75861 21.5559 5.00003 21.5559C4.23401 21.5559 3.48196 21.4292 2.92456 20.9577C2.33186 20.4563 2.15003 19.7349 2.15003 19.0002V16.2337V16.2062V16.2062C2.15001 15.8145 2.14999 15.4142 2.18544 15.0574C2.22177 14.6918 2.3017 14.286 2.51722 13.9193Z" fill="#7C8DB5"/>
</svg>
