<svg width="31" height="26" viewBox="0 0 31 26" fill="none" xmlns="http://www.w3.org/2000/svg">
<path fill-rule="evenodd" clip-rule="evenodd" d="M14.1357 2.64071C14.8892 2.00876 16.1108 2.00876 16.8643 2.64071L20.5541 5.73541C21.3076 6.36736 21.3076 7.39195 20.5541 8.0239L16.8643 11.1186C16.1108 11.7506 14.8892 11.7505 14.1357 11.1186L10.4459 8.0239C9.69241 7.39195 9.69241 6.36736 10.4459 5.73541L14.1357 2.64071ZM15.5 4.56059L12.735 6.87965L15.5 9.19872L18.265 6.87965L15.5 4.56059ZM6.83828 8.76113C7.59176 8.12918 8.81339 8.12918 9.56687 8.76113L13.2567 11.8558C14.0102 12.4878 14.0102 13.5124 13.2567 14.1443L9.56687 17.239C8.81339 17.871 7.59176 17.871 6.83828 17.239L3.14845 14.1443C2.39497 13.5124 2.39497 12.4878 3.14845 11.8558L6.83828 8.76113ZM8.20258 10.681L5.43754 13.0001L8.20258 15.3191L10.9676 13.0001L8.20258 10.681ZM21.4331 8.76114C22.1866 8.12918 23.4083 8.12919 24.1617 8.76114L27.8516 11.8558C28.605 12.4878 28.605 13.5124 27.8516 14.1443L24.1617 17.239C23.4083 17.871 22.1866 17.871 21.4331 17.239L17.7433 14.1443C16.9898 13.5124 16.9898 12.4878 17.7433 11.8558L21.4331 8.76114ZM22.7974 10.681L20.0324 13.0001L22.7974 15.3191L25.5625 13.0001L22.7974 10.681ZM14.1357 14.8816C14.8892 14.2496 16.1108 14.2496 16.8643 14.8816L20.5541 17.9763C21.3076 18.6082 21.3076 19.6328 20.5541 20.2648L16.8643 23.3595C16.1108 23.9914 14.8892 23.9914 14.1357 23.3595L10.4459 20.2648C9.69239 19.6328 9.69239 18.6082 10.4459 17.9763L14.1357 14.8816ZM15.5 16.8014L12.735 19.1205L15.5 21.4396L18.265 19.1205L15.5 16.8014Z" fill="#008767"/>
</svg>
