<svg width="22" height="21" viewBox="0 0 22 21" fill="none" xmlns="http://www.w3.org/2000/svg">
<path fill-rule="evenodd" clip-rule="evenodd" d="M10.55 2.20305C15.0806 2.20305 18.7 5.82249 18.7 10.3531C18.7 11.3523 18.518 12.3444 18.1608 13.2374C18.0778 13.4449 18.0799 13.6769 18.1666 13.8829L19.2698 16.5031H16.15C15.957 16.5031 15.7697 16.5687 15.619 16.6893C14.2548 17.7807 12.4387 18.5031 10.55 18.5031C6.01945 18.5031 2.40001 14.8836 2.40001 10.3531C2.40001 5.82249 6.01945 2.20305 10.55 2.20305ZM20.4 10.3531C20.4 4.88361 16.0195 0.503052 10.55 0.503052C5.08057 0.503052 0.700012 4.88361 0.700012 10.3531C0.700012 15.8225 5.08057 20.2031 10.55 20.2031C12.7499 20.2031 14.8343 19.408 16.4406 18.2031H20.2488C20.9997 18.2031 21.5079 17.4377 21.2165 16.7456L19.8648 13.5352C20.2233 12.5213 20.4 11.4343 20.4 10.3531ZM6.55003 9.70306C5.9149 9.70306 5.40003 10.2179 5.40003 10.8531C5.40003 11.4882 5.9149 12.0031 6.55003 12.0031C7.18516 12.0031 7.70003 11.4882 7.70003 10.8531C7.70003 10.2179 7.18516 9.70306 6.55003 9.70306ZM10.55 9.70306C9.9149 9.70306 9.40003 10.2179 9.40003 10.8531C9.40003 11.4882 9.9149 12.0031 10.55 12.0031C11.1852 12.0031 11.7 11.4882 11.7 10.8531C11.7 10.2179 11.1852 9.70306 10.55 9.70306ZM14.55 9.70306C13.9149 9.70306 13.4 10.2179 13.4 10.8531C13.4 11.4882 13.9149 12.0031 14.55 12.0031C15.1852 12.0031 15.7 11.4882 15.7 10.8531C15.7 10.2179 15.1852 9.70306 14.55 9.70306Z" fill="#7C8DB5"/>
</svg>
