<svg width="170" height="38" viewBox="0 0 170 38" fill="none" xmlns="http://www.w3.org/2000/svg">
<mask id="mask0_71_5298" style="mask-type:luminance" maskUnits="userSpaceOnUse" x="0" y="4" width="37" height="34">
<path d="M0.803223 4.05103H36.1967V37.949H0.803223V4.05103Z" fill="white"/>
</mask>
<g mask="url(#mask0_71_5298)">
<mask id="mask1_71_5298" style="mask-type:luminance" maskUnits="userSpaceOnUse" x="0" y="4" width="37" height="34">
<path d="M18.5 4.05103C8.72638 4.05103 0.803223 11.6394 0.803223 21C0.803223 30.3607 8.72638 37.949 18.5 37.949C28.2736 37.949 36.1967 30.3607 36.1967 21C36.1967 11.6394 28.2736 4.05103 18.5 4.05103Z" fill="white"/>
</mask>
<g mask="url(#mask1_71_5298)">
<path d="M0.803223 4.05103H36.1967V37.949H0.803223V4.05103Z" fill="white"/>
</g>
</g>
<mask id="mask2_71_5298" style="mask-type:luminance" maskUnits="userSpaceOnUse" x="0" y="4" width="37" height="34">
<path d="M0.803223 4.05103H36.1568V37.9108H0.803223V4.05103Z" fill="white"/>
</mask>
<g mask="url(#mask2_71_5298)">
<mask id="mask3_71_5298" style="mask-type:luminance" maskUnits="userSpaceOnUse" x="0" y="4" width="37" height="34">
<path d="M18.4992 4.05103C8.72638 4.05103 0.803223 11.6394 0.803223 20.9993C0.803223 30.3599 8.72638 37.9476 18.4992 37.9476C28.2728 37.9476 36.1952 30.3599 36.1952 20.9993C36.1952 11.6394 28.2728 4.05103 18.4992 4.05103Z" fill="white"/>
</mask>
<g mask="url(#mask3_71_5298)">
<path d="M18.4992 4.05103C8.72638 4.05103 0.803223 11.6394 0.803223 20.9993C0.803223 30.3599 8.72638 37.9476 18.4992 37.9476C28.2728 37.9476 36.1952 30.3599 36.1952 20.9993C36.1952 11.6394 28.2728 4.05103 18.4992 4.05103Z" stroke="#00BF63" stroke-width="6"/>
</g>
</g>
<mask id="mask4_71_5298" style="mask-type:luminance" maskUnits="userSpaceOnUse" x="5" y="8" width="27" height="26">
<path d="M5.28735 8.34564H31.7127V33.6544H5.28735V8.34564Z" fill="white"/>
</mask>
<g mask="url(#mask4_71_5298)">
<mask id="mask5_71_5298" style="mask-type:luminance" maskUnits="userSpaceOnUse" x="5" y="8" width="27" height="26">
<path d="M18.5 8.34564C11.2033 8.34564 5.28735 14.0116 5.28735 21C5.28735 27.9884 11.2033 33.6544 18.5 33.6544C25.7967 33.6544 31.7127 27.9884 31.7127 21C31.7127 14.0116 25.7967 8.34564 18.5 8.34564Z" fill="white"/>
</mask>
<g mask="url(#mask5_71_5298)">
<path d="M5.28735 8.34564H31.7127V33.6544H5.28735V8.34564Z" fill="white"/>
</g>
</g>
<mask id="mask6_71_5298" style="mask-type:luminance" maskUnits="userSpaceOnUse" x="5" y="8" width="27" height="26">
<path d="M5.28735 8.34564H31.7104V33.6523H5.28735V8.34564Z" fill="white"/>
</mask>
<g mask="url(#mask6_71_5298)">
<mask id="mask7_71_5298" style="mask-type:luminance" maskUnits="userSpaceOnUse" x="5" y="8" width="27" height="26">
<path d="M18.4993 8.34564C11.2025 8.34564 5.28735 14.0109 5.28735 20.9993C5.28735 27.9877 11.2025 33.6523 18.4993 33.6523C25.796 33.6523 31.7104 27.9877 31.7104 20.9993C31.7104 14.0109 25.796 8.34564 18.4993 8.34564Z" fill="white"/>
</mask>
<g mask="url(#mask7_71_5298)">
<path d="M18.4993 8.34564C11.2025 8.34564 5.28735 14.0109 5.28735 20.9993C5.28735 27.9877 11.2025 33.6523 18.4993 33.6523C25.796 33.6523 31.7104 27.9877 31.7104 20.9993C31.7104 14.0109 25.796 8.34564 18.4993 8.34564Z" stroke="#C1FF72" stroke-width="4"/>
</g>
</g>
<mask id="mask8_71_5298" style="mask-type:luminance" maskUnits="userSpaceOnUse" x="6" y="9" width="25" height="24">
<path d="M6.2843 9.30048H30.7157V32.6996H6.2843V9.30048Z" fill="white"/>
</mask>
<g mask="url(#mask8_71_5298)">
<mask id="mask9_71_5298" style="mask-type:luminance" maskUnits="userSpaceOnUse" x="6" y="9" width="25" height="24">
<path d="M18.5 9.30048C11.7535 9.30048 6.2843 14.5386 6.2843 21C6.2843 27.4614 11.7535 32.6996 18.5 32.6996C25.2465 32.6996 30.7157 27.4614 30.7157 21C30.7157 14.5386 25.2465 9.30048 18.5 9.30048Z" fill="white"/>
</mask>
<g mask="url(#mask9_71_5298)">
<path d="M6.2843 9.30048H30.7157V32.6996H6.2843V9.30048Z" fill="#7ED957"/>
</g>
</g>
<mask id="mask10_71_5298" style="mask-type:luminance" maskUnits="userSpaceOnUse" x="14" y="15" width="8" height="12">
<path d="M14.6187 15.0302H21.4347V26.5307H14.6187V15.0302Z" fill="white"/>
</mask>
<g mask="url(#mask10_71_5298)">
<path d="M15.6341 26.4181C15.6341 26.4181 15.6496 22.9869 21.3444 18.467C21.3444 18.467 15.433 22.3919 15.9973 15.0302C15.9973 15.0302 13.3444 20.1437 15.6341 26.4181Z" fill="white"/>
</g>
<path d="M18.5363 16.8987C19.1486 17.2727 19.3025 18.0916 18.8787 18.7284C18.4549 19.3645 17.6155 19.577 17.0024 19.203C16.39 18.829 16.2369 18.0101 16.6599 17.374C17.0837 16.7372 17.9239 16.5247 18.5363 16.8987Z" fill="white"/>
<mask id="mask11_71_5298" style="mask-type:luminance" maskUnits="userSpaceOnUse" x="7" y="18" width="9" height="10">
<path d="M7.56378 18.3707H15.944V27.0216H7.56378V18.3707Z" fill="white"/>
</mask>
<g mask="url(#mask11_71_5298)">
<path d="M15.8428 26.9309C15.8428 26.9309 13.2964 24.9143 13.2595 18.3813C13.2595 18.3813 12.7262 24.7153 7.57355 20.0254C7.57355 20.0254 9.8315 24.8279 15.8428 26.9309Z" fill="#00BF63"/>
</g>
<path d="M10.4496 19.3836C11.0864 19.1839 11.7861 19.5579 12.0124 20.2194C12.2387 20.8803 11.9059 21.5787 11.2691 21.7785C10.6323 21.9782 9.93267 21.6042 9.70635 20.9426C9.48004 20.2818 9.81285 19.5834 10.4496 19.3836Z" fill="#00BF63"/>
<path d="M27.96 18.6902L24.0861 24.3236C19.8483 23.4211 17.1473 24.6586 16.7287 24.9108C16.7287 24.9108 20.4895 18.6576 27.96 18.6902Z" fill="white"/>
<mask id="mask12_71_5298" style="mask-type:luminance" maskUnits="userSpaceOnUse" x="19" y="16" width="11" height="5">
<path d="M19.7736 16.415H29.4148V20.9434H19.7736V16.415Z" fill="white"/>
</mask>
<g mask="url(#mask12_71_5298)">
<path d="M29.4252 16.4249L28.5073 17.7594C24.575 17.6942 21.5893 19.4523 19.7751 20.9412C21.4377 19.1243 24.6586 16.4957 29.4252 16.4249Z" fill="#00BF63"/>
</g>
<path d="M28.6101 19.8426L24.6556 25.4576C19.917 24.3724 16.9461 25.7083 16.4706 25.9456L16.6148 25.3669C17.486 24.9674 20.3578 24.036 24.5646 24.9993L28.2322 19.7633C28.3572 19.7874 28.4836 19.8136 28.6101 19.8426Z" fill="white"/>
<mask id="mask13_71_5298" style="mask-type:luminance" maskUnits="userSpaceOnUse" x="16" y="20" width="14" height="7">
<path d="M16.2139 20.5524H29.1552V26.9663H16.2139V20.5524Z" fill="white"/>
</mask>
<g mask="url(#mask13_71_5298)">
<path d="M29.1545 20.6411L25.0734 26.4225C19.8616 25.229 16.6422 26.7476 16.2155 26.9665L16.3597 26.3899C17.2708 25.9649 20.3749 24.9272 24.9632 25.9777L28.7684 20.5596C28.8964 20.5844 29.025 20.612 29.1545 20.6411Z" fill="white"/>
</g>
<mask id="mask14_71_5298" style="mask-type:luminance" maskUnits="userSpaceOnUse" x="12" y="6" width="3" height="3">
<path d="M12.397 6.6322H14.186V8.34566H12.397V6.6322Z" fill="white"/>
</mask>
<g mask="url(#mask14_71_5298)">
<mask id="mask15_71_5298" style="mask-type:luminance" maskUnits="userSpaceOnUse" x="12" y="6" width="3" height="3">
<path d="M13.2919 6.6322C12.7971 6.6322 12.397 7.01541 12.397 7.48858C12.397 7.96245 12.7971 8.34566 13.2919 8.34566C13.7859 8.34566 14.186 7.96245 14.186 7.48858C14.186 7.01541 13.7859 6.6322 13.2919 6.6322Z" fill="white"/>
</mask>
<g mask="url(#mask15_71_5298)">
<path d="M12.397 6.6322H14.186V8.34566H12.397V6.6322Z" fill="#629E00"/>
</g>
</g>
<mask id="mask16_71_5298" style="mask-type:luminance" maskUnits="userSpaceOnUse" x="17" y="5" width="3" height="3">
<path d="M17.6051 5.77515H19.3949V7.4886H17.6051V5.77515Z" fill="white"/>
</mask>
<g mask="url(#mask16_71_5298)">
<mask id="mask17_71_5298" style="mask-type:luminance" maskUnits="userSpaceOnUse" x="17" y="5" width="3" height="3">
<path d="M18.5 5.77515C18.006 5.77515 17.6051 6.15835 17.6051 6.63223C17.6051 7.1054 18.006 7.4886 18.5 7.4886C18.994 7.4886 19.3949 7.1054 19.3949 6.63223C19.3949 6.15835 18.994 5.77515 18.5 5.77515Z" fill="white"/>
</mask>
<g mask="url(#mask17_71_5298)">
<path d="M17.6051 5.77515H19.3949V7.4886H17.6051V5.77515Z" fill="#C1FF72"/>
</g>
</g>
<mask id="mask18_71_5298" style="mask-type:luminance" maskUnits="userSpaceOnUse" x="22" y="6" width="3" height="3">
<path d="M22.8118 6.6322H24.6016V8.34566H22.8118V6.6322Z" fill="white"/>
</mask>
<g mask="url(#mask18_71_5298)">
<mask id="mask19_71_5298" style="mask-type:luminance" maskUnits="userSpaceOnUse" x="22" y="6" width="3" height="3">
<path d="M23.7067 6.6322C23.2126 6.6322 22.8118 7.01541 22.8118 7.48858C22.8118 7.96245 23.2126 8.34566 23.7067 8.34566C24.2007 8.34566 24.6016 7.96245 24.6016 7.48858C24.6016 7.01541 24.2007 6.6322 23.7067 6.6322Z" fill="white"/>
</mask>
<g mask="url(#mask19_71_5298)">
<path d="M22.8118 6.6322H24.6016V8.34566H22.8118V6.6322Z" fill="#00BF63"/>
</g>
</g>
<path d="M48.67 14.91V21.03H55.87V23.82H48.67V30.21H56.77V33H45.25V12.12H56.77V14.91H48.67ZM60.1424 24.66C60.1424 23 60.4824 21.53 61.1624 20.25C61.8624 18.97 62.8024 17.98 63.9824 17.28C65.1824 16.56 66.5124 16.2 67.9724 16.2C69.0524 16.2 70.1124 16.44 71.1524 16.92C72.2124 17.38 73.0524 18 73.6724 18.78V10.8H77.1224V33H73.6724V30.51C73.1124 31.31 72.3324 31.97 71.3324 32.49C70.3524 33.01 69.2224 33.27 67.9424 33.27C66.5024 33.27 65.1824 32.91 63.9824 32.19C62.8024 31.45 61.8624 30.43 61.1624 29.13C60.4824 27.81 60.1424 26.32 60.1424 24.66ZM73.6724 24.72C73.6724 23.58 73.4324 22.59 72.9524 21.75C72.4924 20.91 71.8824 20.27 71.1224 19.83C70.3624 19.39 69.5424 19.17 68.6624 19.17C67.7824 19.17 66.9624 19.39 66.2024 19.83C65.4424 20.25 64.8224 20.88 64.3424 21.72C63.8824 22.54 63.6524 23.52 63.6524 24.66C63.6524 25.8 63.8824 26.8 64.3424 27.66C64.8224 28.52 65.4424 29.18 66.2024 29.64C66.9824 30.08 67.8024 30.3 68.6624 30.3C69.5424 30.3 70.3624 30.08 71.1224 29.64C71.8824 29.2 72.4924 28.56 72.9524 27.72C73.4324 26.86 73.6724 25.86 73.6724 24.72ZM96.8845 16.47V33H93.4645V31.05C92.9245 31.73 92.2145 32.27 91.3345 32.67C90.4745 33.05 89.5545 33.24 88.5745 33.24C87.2745 33.24 86.1045 32.97 85.0645 32.43C84.0445 31.89 83.2345 31.09 82.6345 30.03C82.0545 28.97 81.7645 27.69 81.7645 26.19V16.47H85.1545V25.68C85.1545 27.16 85.5245 28.3 86.2645 29.1C87.0045 29.88 88.0145 30.27 89.2945 30.27C90.5745 30.27 91.5845 29.88 92.3245 29.1C93.0845 28.3 93.4645 27.16 93.4645 25.68V16.47H96.8845ZM119.667 12.15L111.837 33H107.877L100.017 12.15H103.677L109.857 29.49L116.067 12.15H119.667ZM129.997 33.27C128.437 33.27 127.027 32.92 125.767 32.22C124.507 31.5 123.517 30.5 122.797 29.22C122.077 27.92 121.717 26.42 121.717 24.72C121.717 23.04 122.087 21.55 122.827 20.25C123.567 18.95 124.577 17.95 125.857 17.25C127.137 16.55 128.567 16.2 130.147 16.2C131.727 16.2 133.157 16.55 134.437 17.25C135.717 17.95 136.727 18.95 137.467 20.25C138.207 21.55 138.577 23.04 138.577 24.72C138.577 26.4 138.197 27.89 137.437 29.19C136.677 30.49 135.637 31.5 134.317 32.22C133.017 32.92 131.577 33.27 129.997 33.27ZM129.997 30.3C130.877 30.3 131.697 30.09 132.457 29.67C133.237 29.25 133.867 28.62 134.347 27.78C134.827 26.94 135.067 25.92 135.067 24.72C135.067 23.52 134.837 22.51 134.377 21.69C133.917 20.85 133.307 20.22 132.547 19.8C131.787 19.38 130.967 19.17 130.087 19.17C129.207 19.17 128.387 19.38 127.627 19.8C126.887 20.22 126.297 20.85 125.857 21.69C125.417 22.51 125.197 23.52 125.197 24.72C125.197 26.5 125.647 27.88 126.547 28.86C127.467 29.82 128.617 30.3 129.997 30.3ZM146.248 19.26V28.41C146.248 29.03 146.388 29.48 146.668 29.76C146.968 30.02 147.468 30.15 148.168 30.15H150.268V33H147.568C146.028 33 144.848 32.64 144.028 31.92C143.208 31.2 142.798 30.03 142.798 28.41V19.26H140.848V16.47H142.798V12.36H146.248V16.47H150.268V19.26H146.248ZM168.87 24.33C168.87 24.95 168.83 25.51 168.75 26.01H156.12C156.22 27.33 156.71 28.39 157.59 29.19C158.47 29.99 159.55 30.39 160.83 30.39C162.67 30.39 163.97 29.62 164.73 28.08H168.42C167.92 29.6 167.01 30.85 165.69 31.83C164.39 32.79 162.77 33.27 160.83 33.27C159.25 33.27 157.83 32.92 156.57 32.22C155.33 31.5 154.35 30.5 153.63 29.22C152.93 27.92 152.58 26.42 152.58 24.72C152.58 23.02 152.92 21.53 153.6 20.25C154.3 18.95 155.27 17.95 156.51 17.25C157.77 16.55 159.21 16.2 160.83 16.2C162.39 16.2 163.78 16.54 165 17.22C166.22 17.9 167.17 18.86 167.85 20.1C168.53 21.32 168.87 22.73 168.87 24.33ZM165.3 23.25C165.28 21.99 164.83 20.98 163.95 20.22C163.07 19.46 161.98 19.08 160.68 19.08C159.5 19.08 158.49 19.46 157.65 20.22C156.81 20.96 156.31 21.97 156.15 23.25H165.3Z" fill="black"/>
</svg>
