<svg width="429" height="380" viewBox="0 0 429 380" fill="none" xmlns="http://www.w3.org/2000/svg">
<path d="M112.522 171.499C111.578 171.499 110.81 172.363 110.81 173.425V188.837C110.81 189.9 111.578 190.764 112.522 190.764C113.466 190.764 114.234 189.9 114.234 188.837V173.425C114.234 172.363 113.466 171.499 112.522 171.499Z" fill="#3F3D56"/>
<path d="M307.287 0H153.262C135.796 0 121.637 15.9309 121.637 35.5828V341.81C121.637 361.461 135.796 377.392 153.262 377.392H307.287C324.754 377.392 338.913 361.461 338.913 341.81V35.5828C338.913 15.9309 324.754 0 307.287 0Z" fill="white"/>
<path d="M307.287 380H153.262C135.411 380 120.888 363.66 120.888 343.575V37.3483C120.888 17.2634 135.411 0.922913 153.262 0.922913H307.287C325.139 0.922913 339.662 17.2634 339.662 37.3483V343.575C339.662 363.66 325.139 380 307.287 380ZM153.262 2.60811C136.237 2.60811 122.385 18.1924 122.385 37.3483V343.575C122.385 362.731 136.237 378.315 153.262 378.315H307.287C324.313 378.315 338.164 362.731 338.164 343.575V37.3483C338.164 18.1924 324.313 2.60811 307.287 2.60811H153.262Z" fill="#3F3D56"/>
<path d="M318.444 74.6173H256.534C253.908 74.6173 251.772 72.2136 251.772 69.2592C251.772 66.3048 253.908 63.9011 256.534 63.9011H318.444C321.07 63.9011 323.206 66.3048 323.206 69.2592C323.206 72.2136 321.07 74.6173 318.444 74.6173Z" fill="#E6E6E6"/>
<path d="M260.365 116.753H200.185C198.668 116.753 197.434 115.364 197.434 113.657C197.434 111.95 198.668 110.562 200.185 110.562H260.365C261.882 110.562 263.116 111.95 263.116 113.657C263.116 115.364 261.882 116.753 260.365 116.753Z" fill="#4ADE80"/>
<path d="M175.377 13.2735H140.88C140.79 13.2735 140.717 13.3552 140.717 13.456V18.1139C140.717 18.2147 140.79 18.2965 140.88 18.2965H175.377C175.467 18.2965 175.54 18.2147 175.54 18.1139V13.456C175.54 13.3552 175.467 13.2735 175.377 13.2735Z" fill="#E6E6E6"/>
<path d="M291.035 18.2964C293.007 18.2964 294.606 16.4973 294.606 14.2781C294.606 12.0588 293.007 10.2597 291.035 10.2597C289.062 10.2597 287.463 12.0588 287.463 14.2781C287.463 16.4973 289.062 18.2964 291.035 18.2964Z" fill="#E6E6E6"/>
<path d="M300.857 18.2964C302.829 18.2964 304.428 16.4973 304.428 14.2781C304.428 12.0588 302.829 10.2597 300.857 10.2597C298.884 10.2597 297.285 12.0588 297.285 14.2781C297.285 16.4973 298.884 18.2964 300.857 18.2964Z" fill="#E6E6E6"/>
<path d="M310.678 18.2964C312.651 18.2964 314.25 16.4973 314.25 14.2781C314.25 12.0588 312.651 10.2597 310.678 10.2597C308.706 10.2597 307.107 12.0588 307.107 14.2781C307.107 16.4973 308.706 18.2964 310.678 18.2964Z" fill="#E6E6E6"/>
<path d="M152.888 133.325C152.888 133.881 153.285 134.328 153.779 134.328H306.771C307.265 134.328 307.662 133.881 307.662 133.325C307.662 132.769 307.265 132.322 306.771 132.322H153.779C153.285 132.322 152.888 132.769 152.888 133.325Z" fill="#3F3D56"/>
<path d="M274.226 275.14C274.226 275.696 274.623 276.143 275.117 276.143H428.109C428.603 276.143 429 275.696 429 275.14C429 274.584 428.603 274.137 428.109 274.137H275.117C274.623 274.137 274.226 274.584 274.226 275.14Z" fill="#3F3D56"/>
<path d="M292.1 212.133H200.286C198.769 212.133 197.535 210.745 197.535 209.038C197.535 207.331 198.769 205.942 200.286 205.942H292.1C293.617 205.942 294.851 207.331 294.851 209.038C294.851 210.745 293.617 212.133 292.1 212.133Z" fill="#4ADE80"/>
<path d="M172.439 216.238C176.161 216.238 179.179 212.843 179.179 208.655C179.179 204.467 176.161 201.072 172.439 201.072C168.716 201.072 165.699 204.467 165.699 208.655C165.699 212.843 168.716 216.238 172.439 216.238Z" fill="#4ADE80"/>
<path d="M171.69 221.294V219.609C177.265 219.609 181.8 214.506 181.8 208.234C181.8 201.962 177.265 196.859 171.69 196.859V195.174C178.091 195.174 183.298 201.032 183.298 208.234C183.298 215.435 178.091 221.294 171.69 221.294Z" fill="#3F3D56"/>
<path d="M91.412 178.072C94.1613 174.924 97.8335 173.969 99.6139 175.938C101.394 177.907 100.608 182.054 97.8576 185.202C96.7742 186.477 95.4351 187.441 93.9525 188.015L82.1537 201.187L76.7776 194.826L88.98 182.515C89.4636 180.837 90.2975 179.313 91.412 178.072Z" fill="#FFB6B6"/>
<path d="M53.6779 167.199L66.0487 198.077L85.803 186.046L92.8726 190.267C92.8726 190.267 76.724 220.643 65.667 217.185C54.61 213.727 34.9756 182.374 38.5133 172.697C42.0509 163.02 53.6779 167.199 53.6779 167.199Z" fill="#E6E6E6"/>
<path d="M0 378.966C0 379.355 0.27721 379.667 0.622412 379.667H382.047C382.393 379.667 382.67 379.355 382.67 378.966C382.67 378.578 382.393 378.266 382.047 378.266H0.622412C0.27721 378.266 0 378.578 0 378.966Z" fill="#3F3D56"/>
<path d="M114.184 228.01C132.931 228.01 148.127 211.272 148.127 190.625C148.127 169.978 132.931 153.24 114.184 153.24C95.4384 153.24 80.2417 169.978 80.2417 190.625C80.2417 211.272 95.4384 228.01 114.184 228.01Z" fill="#4ADE80"/>
<path d="M48.2535 372.985L57.2738 372.984L61.5648 333.838L48.2516 333.839L48.2535 372.985Z" fill="#FFB6B6"/>
<path d="M79.1581 372.755C79.439 373.287 79.5872 375.005 79.5872 375.624C79.5872 377.526 78.2165 379.068 76.5257 379.068H48.5909C47.4374 379.068 46.5023 378.016 46.5023 376.718V375.41C46.5023 375.41 45.1204 371.477 47.9655 366.63C47.9655 366.63 51.5016 370.425 56.7854 364.48L58.3435 361.304L69.6224 370.585L75.8741 371.451C77.2418 371.64 78.4546 371.422 79.1581 372.755Z" fill="#2F2E41"/>
<path d="M55.0791 169.18L55.2616 155.492L47.759 150.23L39.6008 161.458L55.0791 169.18Z" fill="#FFB6B6"/>
<path opacity="0.1" d="M55.0792 169.18L55.5648 155.833L47.759 150.23L50.411 166.748L55.0792 169.18Z" fill="black"/>
<path d="M73.2997 259.695L60.8701 354.86H45.2755L47.3491 300.538L48.4405 271.975L45.2755 258.379C45.2755 258.379 43.8324 255.357 42.6168 251.693C41.2465 247.559 40.1642 242.603 41.7709 240.253C42.3621 239.387 43.8991 238.746 45.9879 238.268C47.2642 237.975 48.7497 237.746 50.3534 237.569C59.5756 236.542 72.6934 237.183 72.6934 237.183L73.0269 249.565L73.2118 256.479L73.2997 259.695Z" fill="#2F2E41"/>
<path d="M32.364 368.331L41.2884 369.806L50.5947 331.779L37.423 329.601L32.364 368.331Z" fill="#FFB6B6"/>
<path d="M62.9697 373.161C63.1788 373.733 63.1033 375.457 63.0233 376.069C62.7774 377.952 61.2219 379.253 59.549 378.976L31.9113 374.405C30.7701 374.216 29.981 373.022 30.1488 371.738L30.3179 370.443C30.3179 370.443 29.4592 366.326 32.9007 361.996C32.9007 361.996 35.9085 366.33 41.9047 361.313L43.8568 358.426L53.8159 369.454L59.8892 371.334C61.2179 371.745 62.446 371.727 62.9697 373.161Z" fill="#2F2E41"/>
<path d="M73.4953 243.825L71.7905 260.344L62.4932 295.154L47.1882 352.463L31.7612 349.912L45.6068 268.427L44.2358 254.454C44.2358 254.454 43.7894 253.065 43.2776 251.032C42.2618 247.01 40.9877 240.459 42.3894 237.117C42.5786 236.663 42.8162 236.269 43.1102 235.95C43.6615 235.348 44.782 234.983 46.2833 234.789C52.5582 233.991 65.481 236.273 71.2314 237.394L73.4953 243.825Z" fill="#2F2E41"/>
<path d="M41.3162 158.562L56.4742 166.748C56.4742 166.748 72.5418 220.299 72.5418 223.028C72.5418 225.757 77.0892 227.462 74.3607 230.532C71.6323 233.602 79.4391 236.202 75.2325 238.654C71.026 241.106 44.7846 254.519 41.8667 253.309C33.8189 249.973 42.2077 237.715 42.2077 237.715C42.2077 237.715 36.1624 232.238 37.0719 229.509C37.9814 226.78 31.615 174.593 31.615 174.593L41.3162 158.562Z" fill="#E6E6E6"/>
<path d="M87.5043 205.749C91.2662 204.498 94.889 205.669 95.5959 208.363C96.3028 211.056 93.8263 214.253 90.0629 215.503C88.5657 216.026 86.9789 216.138 85.4355 215.829L69.4367 220.901L67.4813 212.403L83.461 208.305C84.6079 207.102 85.9944 206.225 87.5043 205.749Z" fill="#FFB6B6"/>
<path d="M59.2065 175.633L56.6989 209.384L79.1602 209.656L83.5194 217.208C83.5194 217.208 56.295 234.944 48.1203 225.882C39.9456 216.819 36.3083 178.684 43.5763 172.156C50.8444 165.629 59.2065 175.633 59.2065 175.633Z" fill="#E6E6E6"/>
<path d="M54.7631 159.463C61.9346 159.463 67.7482 152.922 67.7482 144.854C67.7482 136.785 61.9346 130.244 54.7631 130.244C47.5917 130.244 41.7781 136.785 41.7781 144.854C41.7781 152.922 47.5917 159.463 54.7631 159.463Z" fill="#FFB6B6"/>
<path d="M47.7594 144.911C47.7594 144.911 49.8043 141.115 50.929 139.159C52.0537 137.204 52.0537 134.338 52.0537 134.338C52.0537 134.338 62.4826 134.098 65.959 137.434C69.4353 140.77 71.8891 128.461 68.5151 124.204C68.5151 124.204 67.0836 126.045 67.3904 126.735L67.6971 127.425C67.6971 127.425 65.959 119.603 60.949 118.107C60.949 118.107 58.162 119.727 58.942 120.643C59.722 121.559 52.9739 115.116 50.929 118.913C50.929 118.913 45.919 118.798 46.5325 120.868L46.2258 122.134C46.2258 122.134 41.9315 120.638 41.6248 124.204C41.6248 124.204 43.1584 124.204 43.9764 125.125C44.7943 126.045 41.0113 128.691 41.0113 128.691C41.0113 128.691 36.6148 142.265 42.545 147.787C42.545 147.787 42.5961 141.172 44.9477 142.783C47.2993 144.393 47.7594 144.911 47.7594 144.911Z" fill="#2F2E41"/>
<path d="M60.1166 153.539L59.6503 154.919L63.1471 155.034L63.3802 153.769L60.1166 153.539Z" fill="#2F2E41"/>
<path d="M63.6134 148.592C63.6134 148.592 58.3682 146.982 55.2211 151.813L54.5218 152.734C54.5218 152.734 47.8779 144.336 48.4607 141.23L47.062 141.345L45.6633 149.397C45.6633 149.397 50.0926 158.025 56.2702 158.37C56.2702 158.37 62.2147 159.981 63.4968 157.22C64.779 154.459 66.9864 150.388 66.9864 150.388L63.6134 148.592ZM62.6593 156.3H59.1841C58.3682 156.3 56.2702 152.964 56.2702 152.964C57.4358 150.893 60.9325 150.778 60.9325 150.778H64.7298L65.0121 152.043L62.6593 156.3Z" fill="#2F2E41"/>
<path d="M316.733 374.097L311.032 372.71L313.071 347.308L321.486 349.354L316.733 374.097Z" fill="#A0616A"/>
<path d="M297.228 369.203C296.985 369.496 296.683 370.559 296.608 370.95C296.377 372.153 297.056 373.338 298.125 373.598L315.782 377.89C316.511 378.067 317.23 377.546 317.387 376.725L317.546 375.898C317.546 375.898 318.897 373.625 317.687 370.124C317.687 370.124 314.991 371.98 312.373 367.41L311.774 365.163L303.518 369.297L299.462 368.883C298.574 368.793 297.834 368.468 297.228 369.203Z" fill="#2F2E41"/>
<path d="M306.536 372.153L301.779 368.355L312.538 345.904L319.558 351.511L306.536 372.153Z" fill="#A0616A"/>
<path d="M290.315 359.019C289.989 359.181 289.34 360.025 289.134 360.351C288.501 361.354 288.711 362.745 289.603 363.457L304.334 375.219C304.942 375.705 305.785 375.544 306.217 374.86L306.652 374.17C306.652 374.17 308.689 372.677 308.801 368.923C308.801 368.923 305.674 369.436 304.865 364.076L305.1 361.745L296.065 361.89L292.48 359.714C291.696 359.238 291.129 358.612 290.315 359.019Z" fill="#2F2E41"/>
<path d="M375.058 246.563C375.058 246.563 383.928 260.131 366.188 275.386L329.97 262.364L342.905 232.01L354.362 224.941L375.058 246.563Z" fill="#2F2E41"/>
<path d="M329.97 262.364L315.926 293.135L307.056 357.171L318.143 358.003L329.231 297.293L348.818 264.443L335.144 257.375" fill="#2F2E41"/>
<path d="M366.188 265.72V275.386L341.057 306.441C341.057 306.441 341.057 329.727 331.448 340.538L320.361 359.666L310.752 353.844L324.796 298.125L349.927 261.533L366.188 265.72Z" fill="#2F2E41"/>
<path d="M348.33 169.898L352.141 190.206L366.67 186.211C366.67 186.211 359.488 169.404 360.917 162.745L348.33 169.898Z" fill="#A0616A"/>
<path opacity="0.1" d="M348.33 169.898L352.141 190.206L366.67 186.211C366.67 186.211 359.488 169.404 360.917 162.745L348.33 169.898Z" fill="black"/>
<path d="M362.123 172.963L351.036 178.785C351.036 178.785 345.332 182.707 345.227 185.32C345.122 187.933 345.862 200.407 345.862 200.407C345.862 200.407 341.427 205.397 344.383 215.377L342.905 232.01L376.167 251.969L373.21 217.04L374.689 184.606L362.123 172.963Z" fill="#E6E6E6"/>
<path d="M372.075 267.605C370.777 270.956 368.188 272.919 366.293 271.989C364.397 271.059 363.913 267.589 365.212 264.237C365.715 262.89 366.497 261.698 367.493 260.761L373.153 246.64L378.986 249.769L372.787 263.358C372.855 264.817 372.611 266.274 372.075 267.605Z" fill="#A0616A"/>
<path d="M366.188 186.685C366.188 186.685 374.319 180.864 377.276 187.517C380.232 194.17 386.885 228.267 386.885 228.267L377.276 260.701L368.406 256.543L376.167 221.637L366.188 186.685Z" fill="#E6E6E6"/>
<path d="M324.517 262.37C322.213 264.947 319.163 265.699 317.705 264.049C316.248 262.398 316.934 258.972 319.24 256.394C320.148 255.35 321.265 254.566 322.498 254.108L332.383 243.326L336.781 248.653L326.569 258.716C326.154 260.101 325.451 261.354 324.517 262.37Z" fill="#A0616A"/>
<path d="M345.54 184.701C345.54 184.701 359.715 184.049 360.286 191.46C360.856 198.87 351.165 231.937 351.165 231.937L331.612 258.107L324.728 250.565L343.372 221.331L345.54 184.701Z" fill="#E6E6E6"/>
<path d="M386.469 272.525L295.828 256.076C294.33 255.804 293.308 254.212 293.549 252.527C293.791 250.842 295.206 249.692 296.704 249.964L387.346 266.413C388.843 266.685 389.865 268.276 389.624 269.962C389.382 271.647 387.967 272.797 386.469 272.525Z" fill="#4ADE80"/>
<path d="M268.828 255.237C272.55 255.237 275.568 251.841 275.568 247.653C275.568 243.465 272.55 240.07 268.828 240.07C265.105 240.07 262.088 243.465 262.088 247.653C262.088 251.841 265.105 255.237 268.828 255.237Z" fill="#4ADE80"/>
<path d="M266.3 259.997L266.538 258.333C272.042 259.332 277.241 255.107 278.129 248.914C279.017 242.722 275.261 236.872 269.758 235.873L269.996 234.209C276.315 235.356 280.627 242.073 279.608 249.183C278.589 256.292 272.619 261.143 266.3 259.997Z" fill="#3F3D56"/>
<path d="M349.783 174.214C355.948 174.214 360.946 168.591 360.946 161.654C360.946 154.718 355.948 149.095 349.783 149.095C343.618 149.095 338.62 154.718 338.62 161.654C338.62 168.591 343.618 174.214 349.783 174.214Z" fill="#A0616A"/>
<path d="M356.38 161.654C356.38 161.654 349.411 154.537 344.946 157.049C340.481 159.561 338.248 161.236 338.248 161.236C338.248 161.236 334.527 154.956 340.108 149.513C340.108 149.513 328.748 143.929 337.033 135.208C345.318 126.487 352.76 129.836 352.76 129.836C352.76 129.836 362.807 134.86 355.737 144.908C355.737 144.908 366.037 152.257 360.701 164.282C360.701 164.282 360.202 156.63 358.714 158.724C357.225 160.817 356.38 161.654 356.38 161.654Z" fill="#2F2E41"/>
<path d="M125.847 204.701C121.579 192.896 117.311 181.091 113.044 169.286C112.455 167.656 110.608 167.598 110.033 169.286C105.816 181.663 103.061 194.577 101.736 207.744C101.511 209.987 104.635 209.969 104.859 207.744C105.377 202.592 106.147 197.478 107.135 192.418C110.651 192.625 114.197 192.182 117.59 191.125C119.339 195.961 121.087 200.798 122.836 205.635C123.583 207.702 126.605 206.798 125.847 204.701ZM107.843 188.945C108.895 184.101 110.155 179.315 111.618 174.606L116.404 187.844C113.601 188.672 110.734 189.04 107.843 188.945Z" fill="white"/>
</svg>
