<svg width="31" height="31" viewBox="0 0 31 31" fill="none" xmlns="http://www.w3.org/2000/svg">
<path fill-rule="evenodd" clip-rule="evenodd" d="M15.8548 5.3198C15.6229 5.25353 15.3771 5.25353 15.1451 5.3198L8.68681 7.16504C8.13229 7.32347 7.74999 7.8303 7.74999 8.40701V15.349C7.74999 18.269 9.16018 21.0093 11.5363 22.7065L13.6674 24.2288C14.2479 24.6434 14.3824 25.4501 13.9677 26.0306C13.5531 26.6111 12.7464 26.7455 12.1659 26.3309L10.0348 24.8087C6.97976 22.6265 5.16666 19.1033 5.16666 15.349V8.40701C5.16666 6.6769 6.31357 5.1564 7.97711 4.6811L14.4354 2.83586C15.1312 2.63707 15.8688 2.63707 16.5645 2.83586L23.0229 4.6811C24.6864 5.1564 25.8333 6.67689 25.8333 8.40701V15.5001C25.8333 16.2134 25.255 16.7917 24.5417 16.7917C23.8283 16.7917 23.25 16.2134 23.25 15.5001V8.40701C23.25 7.8303 22.8677 7.32347 22.3132 7.16504L15.8548 5.3198Z" fill="#008767"/>
<path fill-rule="evenodd" clip-rule="evenodd" d="M20.6667 20.6666C19.2399 20.6666 18.0833 21.8232 18.0833 23.2499C18.0833 24.6767 19.2399 25.8333 20.6667 25.8333C22.0934 25.8333 23.25 24.6767 23.25 23.2499C23.25 21.8232 22.0934 20.6666 20.6667 20.6666ZM15.5 23.2499C15.5 20.3964 17.8132 18.0833 20.6667 18.0833C23.5201 18.0833 25.8333 20.3964 25.8333 23.2499C25.8333 26.1034 23.5201 28.4166 20.6667 28.4166C17.8132 28.4166 15.5 26.1034 15.5 23.2499Z" fill="#008767"/>
</svg>
