<svg width="408" height="422" viewBox="0 0 408 422" fill="none" xmlns="http://www.w3.org/2000/svg">
<g clip-path="url(#clip0_200_1879)">
<path d="M91.508 70.4745L88.3975 87.1513L103.905 91.6159L101.978 73.8116L91.508 70.4745Z" fill="#A0616A"/>
<path d="M0 415.685C0 416.209 0.412168 416.63 0.925428 416.63H407.075C407.588 416.63 408 416.209 408 415.685C408 415.161 407.588 414.74 407.075 414.74H0.925428C0.412168 414.74 0 415.161 0 415.685Z" fill="#3F3D56"/>
<path d="M276.866 189.249H116.932C98.7949 189.249 84.0922 204.263 84.0922 222.785V381.161C84.0922 399.683 98.7949 414.697 116.931 414.697H276.866C295.003 414.697 309.706 399.683 309.706 381.161V222.785C309.706 204.263 295.003 189.249 276.866 189.249Z" fill="white"/>
<path d="M276.866 415.491H116.932C98.3953 415.491 83.3146 400.091 83.3146 381.161V222.785C83.3146 203.856 98.3953 188.455 116.932 188.455H276.866C295.403 188.455 310.483 203.856 310.483 222.785V381.161C310.483 400.091 295.403 415.491 276.866 415.491ZM116.932 190.043C99.2526 190.043 84.8699 204.731 84.8699 222.785V381.161C84.8699 399.215 99.2526 413.903 116.932 413.903H276.866C294.545 413.903 308.928 399.215 308.928 381.161V222.785C308.928 204.731 294.545 190.043 276.866 190.043L116.932 190.043Z" fill="#3F3D56"/>
<path d="M288.451 257.911H224.166C221.439 257.911 219.221 255.645 219.221 252.861C219.221 250.076 221.439 247.811 224.166 247.811H288.451C291.178 247.811 293.396 250.076 293.396 252.861C293.396 255.645 291.178 257.911 288.451 257.911Z" fill="#3DF07F"/>
<path d="M228.143 297.623H165.655C164.08 297.623 162.798 296.314 162.798 294.705C162.798 293.097 164.08 291.788 165.655 291.788H228.143C229.719 291.788 231 293.097 231 294.705C231 296.314 229.719 297.623 228.143 297.623Z" fill="#3DF07F"/>
<path d="M139.822 200.095H104.147C104.013 200.095 103.905 200.205 103.905 200.341V204.583C103.905 204.719 104.013 204.829 104.147 204.829H139.822C139.956 204.829 140.064 204.719 140.064 204.583V200.341C140.064 200.205 139.956 200.095 139.822 200.095Z" fill="#3DF07F"/>
<path d="M259.99 204.829C262.039 204.829 263.699 203.134 263.699 201.042C263.699 198.95 262.039 197.255 259.99 197.255C257.942 197.255 256.282 198.95 256.282 201.042C256.282 203.134 257.942 204.829 259.99 204.829Z" fill="#3F3D56"/>
<path d="M270.189 204.829C272.237 204.829 273.898 203.134 273.898 201.042C273.898 198.95 272.237 197.255 270.189 197.255C268.141 197.255 266.48 198.95 266.48 201.042C266.48 203.134 268.141 204.829 270.189 204.829Z" fill="#3F3D56"/>
<path d="M280.387 204.829C282.436 204.829 284.096 203.134 284.096 201.042C284.096 198.95 282.436 197.255 280.387 197.255C278.339 197.255 276.679 198.95 276.679 201.042C276.679 203.134 278.339 204.829 280.387 204.829Z" fill="#3F3D56"/>
<path d="M116.542 313.242C116.542 313.766 116.954 314.187 117.468 314.187H276.33C276.843 314.187 277.255 313.766 277.255 313.242C277.255 312.717 276.843 312.297 276.33 312.297H117.468C116.954 312.297 116.542 312.717 116.542 313.242Z" fill="#3F3D56"/>
<path d="M164.992 80.1416C168.374 77.2877 172.558 76.7565 174.336 78.9548C176.114 81.1532 174.813 85.2479 171.43 88.1023C170.094 89.2615 168.505 90.077 166.797 90.4805L152.317 102.388L146.991 95.3296L161.83 84.3407C162.541 82.7032 163.625 81.2633 164.992 80.1416Z" fill="#A0616A"/>
<path d="M81.3034 107.007C81.2961 106.481 81.3009 101.887 84.6308 98.9841C88.4559 95.6491 93.8533 96.999 95.7464 97.4724C100.12 98.5661 100.478 100.482 104.585 102.45C112.268 106.133 102.641 104.248 107.213 103.067C108.796 102.658 131.563 101.046 137.23 97.4839C148.251 90.5563 155.761 86.3553 155.761 86.3553L160.671 96.3824C160.671 96.3824 153.572 106.463 143.581 113.931C133.332 121.591 128.208 125.421 120.42 126.901C119.749 127.028 103.256 129.904 89.9718 119.769C86.9417 117.457 81.3899 113.221 81.3034 107.007Z" fill="#E6E6E6"/>
<path d="M96.5325 81.506C105.978 81.506 113.635 73.6866 113.635 64.0409C113.635 54.3952 105.978 46.5758 96.5325 46.5758C87.0872 46.5758 79.4303 54.3952 79.4303 64.0409C79.4303 73.6866 87.0872 81.506 96.5325 81.506Z" fill="#A0616A"/>
<path d="M230.47 181.378L212.857 162.967L203.766 172.652L216.888 190.305L229.904 191.826L230.47 181.378Z" fill="#A0616A"/>
<path d="M129.9 146.853C130.93 146.94 134.204 147.61 137.333 145.852C139.468 144.652 140.564 142.868 140.934 142.301C145.523 135.262 163.137 124.286 178.945 123.611C182.525 123.458 184.881 123.881 187.023 125.021C190.06 126.638 191.272 128.954 195.126 134.379C197.234 137.346 199.567 140.141 201.7 143.09C214.19 160.351 218.925 161.706 218.441 167.24C217.905 173.38 211.42 179.206 207.111 178.533C205.346 178.258 204.662 177.004 202.304 174.467C195.39 167.028 192.529 168.402 187.607 162.704C181.86 156.052 182.612 150.536 179.614 150.323C176.833 150.125 175.651 154.831 169.715 161.082C166.999 163.942 165.065 165.254 159.172 169.429C136.223 185.688 135.857 186.83 131.226 188.127C129.199 188.694 114.818 192.721 109.695 186.313C101.678 176.286 120.618 146.065 129.9 146.853Z" fill="#2F2E41"/>
<path d="M225.086 185.539C226.381 184.945 227.896 184.25 228.383 182.653C228.713 181.572 228.523 180.24 227.841 179.319C227.055 178.256 225.891 178.116 225.938 177.928C226.01 177.642 228.762 177.754 231.784 178.845C232.354 179.051 234.937 180.015 238.223 182.634C240.855 184.733 240.501 185.154 242.152 186.364C247.219 190.079 251.972 187.151 254.714 190.635C255.772 191.979 256.223 193.888 255.778 195.432C254.883 198.531 250.534 199.598 248.157 200.149C242.433 201.475 238.1 200.392 233.576 199.614C218.189 196.966 209.544 199.378 208.387 195.737C208.168 195.048 208.523 195.107 209.71 190.051C210.881 185.061 210.842 183.69 211.84 183.291C213.341 182.689 214.349 185.425 218.13 186.362C221.481 187.192 224.246 185.924 225.086 185.539Z" fill="#2F2E41"/>
<path d="M199.157 241.609L194.708 216.274L181.859 219.075L183.01 241.207L192.944 249.929L199.157 241.609Z" fill="#A0616A"/>
<path d="M134.925 155.368C135.729 156.031 138.07 158.463 141.626 158.803C144.053 159.034 145.94 158.186 146.558 157.929C154.225 154.737 174.835 155.755 188.287 164.262C191.334 166.188 193.05 167.89 194.196 170.061C195.82 173.141 195.55 175.752 195.755 182.451C195.868 186.115 196.261 189.766 196.405 193.429C197.249 214.875 200.422 218.711 196.978 223.013C193.158 227.785 184.589 228.887 181.393 225.859C180.084 224.619 180.207 223.19 179.651 219.738C178.021 209.618 174.898 209.115 173.958 201.577C172.861 192.777 176.516 188.644 174.153 186.748C171.96 184.99 168.395 188.206 160.046 189.975C156.225 190.784 153.903 190.76 146.732 190.835C118.803 191.129 117.872 191.864 113.327 190.281C111.338 189.588 97.224 184.673 96.5083 176.433C95.3883 163.539 127.677 149.394 134.925 155.368Z" fill="#2F2E41"/>
<path d="M192.414 241.964C193.813 242.215 195.448 242.509 196.729 241.467C197.596 240.762 198.172 239.55 198.114 238.397C198.048 237.067 197.162 236.284 197.304 236.155C197.521 235.96 199.737 237.631 201.637 240.266C201.996 240.763 203.603 243.042 204.881 247.094C205.906 250.34 205.381 250.485 206.082 252.433C208.232 258.413 213.775 258.716 214.128 263.171C214.264 264.89 213.588 266.728 212.371 267.75C209.926 269.802 205.741 268.191 203.471 267.284C198.005 265.098 195.015 261.718 191.7 258.479C180.424 247.464 171.944 244.502 172.989 240.826C173.186 240.131 173.448 240.383 177.21 236.88C180.923 233.423 181.645 232.267 182.69 232.508C184.263 232.871 183.592 235.713 186.206 238.656C188.523 241.265 191.508 241.801 192.414 241.964Z" fill="#2F2E41"/>
<path d="M98.8641 67.3798C99.5299 64.9476 98.6936 64.0613 99.546 62.9695C99.546 62.9695 99.889 62.5302 102.955 61.3447C102.051 55.9839 102.728 55.0775 102.728 55.0775C103.509 54.0328 105.073 53.7802 106.138 53.9169C108.389 54.2059 108.788 56.2847 110.229 56.2381C112.219 56.1736 114.607 52.1047 113.866 48.5781C113.261 45.7014 110.655 43.565 110.002 43.9357C109.354 44.3033 107.022 42.6825 106.138 43.0073C105.534 43.229 102.691 42.934 102.046 43.2394C101.342 43.5729 99.3264 45.6494 99.1336 45.3878C97.7943 43.5697 97.8228 42.9349 97.0457 42.543C95.6688 41.8487 94.1718 43.132 91.5906 44.4C86.2797 47.0088 84.7246 45.4526 82.2715 47.6496C81.0323 48.7595 80.3678 50.8806 79.0893 55.0775C77.3014 60.9467 76.4075 63.8814 77.271 66.6834C78.1516 69.541 79.4483 68.919 81.3623 72.9506C83.4929 77.4385 82.7586 80.0471 84.7717 81.0748C86.3277 81.8692 88.8282 81.3636 89.7723 79.9142C91.3886 77.4327 87.2108 74.0759 88.6358 70.1652C89.5105 67.7647 92.2088 65.9445 93.8636 66.4513C95.7346 67.0244 95.8724 70.4503 97.0457 70.3973C98.0505 70.3519 98.7481 67.8036 98.8641 67.3798Z" fill="#2F2E41"/>
<path d="M85.9082 84.0924C89.4079 80.0851 103.663 84.2328 105.001 90.5917C105.551 93.2073 103.52 94.3117 104.092 97.3232C104.929 101.728 109.667 101.428 113.184 105.912C118.177 112.277 113.033 118.5 118.639 129.124C119.837 131.394 120.846 133.307 122.957 135.159C127.802 139.408 132.31 137.951 134.777 141.89C136.621 144.836 135.864 148.467 135.686 149.318C134.958 152.806 132.985 153.656 131.595 156.514C129.282 161.269 131.901 164.76 132.049 170.441C132.235 177.549 128.536 187.402 121.139 190.635C112.828 194.267 102.805 188.252 97.9549 182.279C95.0607 178.715 94.2205 175.427 92.9544 171.369C87.2956 153.233 84.0986 154.874 79.7712 140.497C74.8241 124.063 73.8516 104.809 79.7712 98.7159C80.5558 97.9083 82.7151 96.0418 84.0898 92.6808C85.9397 88.1582 84.3416 85.8862 85.9082 84.0924Z" fill="#E6E6E6"/>
<path d="M137.62 177.377C140.333 180.897 140.754 185.181 138.56 186.944C136.365 188.707 132.388 187.282 129.674 183.76C128.571 182.368 127.81 180.727 127.456 178.973L116.144 163.908L121.989 159.354L133.585 174.049C135.171 174.813 136.554 175.954 137.62 177.377Z" fill="#A0616A"/>
<path d="M96.191 99.3645C96.6943 99.2497 101.099 98.3173 104.561 101.054C108.539 104.198 108.346 109.869 108.278 111.858C108.122 116.453 106.359 117.203 105.31 121.71C103.347 130.143 107.085 137.98 109.15 142.309C109.865 143.808 112.161 148.394 116.732 153.333C125.622 162.938 133.554 167.992 133.554 167.992L125.032 175.728C125.032 175.728 111.459 171.503 102.262 163.038C92.8273 154.355 78.3189 123.634 75.3113 116.15C75.0522 115.506 78.7212 125.983 85.7265 110.634C87.3243 107.134 90.252 100.719 96.191 99.3645Z" fill="#E6E6E6"/>
<path d="M213.028 334.875C207.612 335.723 203.65 339.264 204.179 342.784C204.708 346.304 209.527 348.469 214.945 347.621C217.114 347.312 219.179 346.477 220.967 345.186L243.872 341.298L242.343 332.052L219.49 335.355C217.404 334.67 215.189 334.506 213.028 334.875Z" fill="#FFB6B6"/>
<path d="M311.729 306.055L302.848 325.301L258.2 340.649L221.152 342.668L220.224 333.581L260.376 325.007L301.577 305.124L311.729 306.055Z" fill="#E6E6E6"/>
<path d="M229.383 379.132L221.409 399.728L211.09 392.543L217.188 370.989L229.383 379.132Z" fill="#FFB6B6"/>
<path d="M196.081 371.468L174.975 392.064L183.417 401.165L204.993 383.921L196.081 371.468Z" fill="#FFB6B6"/>
<path d="M315.685 304.41L315.45 302.733L310.056 291.956L292.233 296.746L295.516 311.594L315.685 304.41Z" fill="#FFB6B6"/>
<path d="M308.18 376.258L308.728 383.452C308.728 383.452 310.994 413.619 292.702 416.014C274.41 418.409 266.436 420.804 255.648 402.123L238.763 371.468L228.901 383.452L215.781 372.905C215.781 372.905 225.161 335.544 232.666 334.107C233.604 333.927 234.542 333.837 235.465 333.818C241.678 333.686 247.535 336.789 251.252 341.874L272.534 370.989L280.273 367.396L308.18 376.258Z" fill="#2F2E41"/>
<path d="M206.869 398.77L211.09 390.627L223.285 399.249C223.285 399.249 226.099 409.787 221.878 411.224C217.657 412.661 205.931 410.745 205.931 410.745C205.931 410.745 184.355 415.535 183.886 411.224C183.417 406.913 193.736 405.955 193.736 405.955L206.869 398.77Z" fill="#2F2E41"/>
<path d="M252.834 393.022L220.236 372.047L203.586 387.274L192.329 373.863C192.329 373.863 212.966 342.729 219.064 341.292C225.161 339.855 235.011 338.897 235.011 338.897L265.029 367.157L252.834 393.022Z" fill="#2F2E41"/>
<path d="M174.506 390.148L185.293 402.123L183.871 403.366C183.871 403.366 181.072 415.814 174.506 411.603C167.939 407.392 167.47 406.434 167.47 406.434C167.47 406.434 148.709 410.745 146.833 403.081C144.956 395.417 150.116 396.854 150.116 396.854L154.801 399.728L174.506 390.148Z" fill="#2F2E41"/>
<path d="M297.861 302.015C306.151 302.015 312.871 295.152 312.871 286.687C312.871 278.222 306.151 271.359 297.861 271.359C289.572 271.359 282.852 278.222 282.852 286.687C282.852 295.152 289.572 302.015 297.861 302.015Z" fill="#FFB6B6"/>
<path d="M294.344 308.481L315.919 301.775C315.919 301.775 324.362 321.893 322.955 330.993C321.548 340.094 308.728 383.452 308.728 383.452L280.273 367.396C280.273 367.396 279.804 357.817 278.397 353.506C276.989 349.195 272.534 336.023 282.383 325.006C292.233 313.989 294.344 308.481 294.344 308.481Z" fill="#E6E6E6"/>
<path d="M246.857 409.059C243.346 413.355 242.67 418.688 245.348 420.969C248.025 423.251 253.041 421.618 256.553 417.32C257.979 415.623 258.987 413.601 259.491 411.425L274.143 393.031L267.006 387.133L252.013 405.052C250.005 405.949 248.238 407.322 246.857 409.059Z" fill="#FFB6B6"/>
<path d="M310.893 318.145L315.993 338.773L291.033 379.575L265.553 405.727L257.295 398.73L282.992 366.078L302.47 324.006L310.893 318.145Z" fill="#E6E6E6"/>
<path d="M284.025 284.053C287.874 284.043 288.093 284.069 288.715 284.053C293.49 283.924 294.738 282.006 297.158 282.137C301.477 282.37 295.776 304.484 293.406 314.708C291.081 324.735 298.938 333.719 299.503 334.346C307.479 343.205 321.489 344.825 323.893 341.052C325.839 337.999 318.943 333.356 320.61 326.683C322.239 320.159 329.763 320.854 331.866 314.708C334.069 308.272 326.667 305.026 322.017 289.322C319.346 280.303 319.818 278.622 317.326 273.036C310.665 258.105 278.014 264.462 281.68 278.305C282.389 280.983 280.502 284.061 284.025 284.053Z" fill="#2F2E41"/>
<path d="M331.953 102.094H174.21C169.749 102.094 166.119 98.388 166.119 93.8327V8.26177C166.119 3.70648 169.749 0 174.21 0H331.953C336.414 0 340.043 3.70647 340.043 8.26177V93.8327C340.043 98.388 336.414 102.094 331.953 102.094Z" fill="white"/>
<path d="M331.953 102.094H174.21C169.749 102.094 166.119 98.388 166.119 93.8327V8.26177C166.119 3.70648 169.749 0 174.21 0H331.953C336.414 0 340.043 3.70647 340.043 8.26177V93.8327C340.043 98.388 336.414 102.094 331.953 102.094ZM174.21 1.37966C170.494 1.37966 167.47 4.46704 167.47 8.26177V93.8327C167.47 97.6274 170.494 100.715 174.21 100.715H331.953C335.668 100.715 338.692 97.6274 338.692 93.8327V8.26177C338.692 4.46704 335.668 1.37966 331.953 1.37966H174.21Z" fill="#3F3D56"/>
<path d="M319.778 10.3475C320.897 10.3475 321.804 9.42092 321.804 8.27798C321.804 7.13503 320.897 6.2085 319.778 6.2085C318.659 6.2085 317.751 7.13503 317.751 8.27798C317.751 9.42092 318.659 10.3475 319.778 10.3475Z" fill="#3F3D56"/>
<path d="M325.182 10.3475C326.301 10.3475 327.208 9.42092 327.208 8.27798C327.208 7.13503 326.301 6.2085 325.182 6.2085C324.063 6.2085 323.155 7.13503 323.155 8.27798C323.155 9.42092 324.063 10.3475 325.182 10.3475Z" fill="#3F3D56"/>
<path d="M330.586 10.3475C331.705 10.3475 332.612 9.42092 332.612 8.27798C332.612 7.13503 331.705 6.2085 330.586 6.2085C329.467 6.2085 328.559 7.13503 328.559 8.27798C328.559 9.42092 329.467 10.3475 330.586 10.3475Z" fill="#3F3D56"/>
<path d="M177.603 41.7346C177.044 41.7346 176.59 42.1988 176.59 42.7694C176.59 43.0476 176.695 43.3049 176.886 43.4949C177.078 43.6963 177.331 43.8041 177.603 43.8041H329.235C329.793 43.8041 330.248 43.3399 330.248 42.7694C330.248 42.4911 330.143 42.2338 329.952 42.0438C329.759 41.8424 329.507 41.7346 329.235 41.7346H177.603Z" fill="#E6E6E6"/>
<path d="M310.321 41.3896V44.149H177.603C177.231 44.149 176.894 43.9972 176.65 43.7419C176.4 43.4936 176.252 43.1487 176.252 42.7693C176.252 42.0105 176.86 41.3896 177.603 41.3896H310.321Z" fill="#3DF07F"/>
<path d="M327.546 36.2159H314.036C312.546 36.2159 311.334 34.9784 311.334 33.4566C311.334 31.9348 312.546 30.6973 314.036 30.6973H327.546C329.036 30.6973 330.248 31.9348 330.248 33.4566C330.248 34.9784 329.036 36.2159 327.546 36.2159Z" fill="#E6E6E6"/>
<path d="M239.056 21.7296H178.616C177.126 21.7296 175.914 20.492 175.914 18.9702C175.914 17.4485 177.126 16.2109 178.616 16.2109H239.056C240.546 16.2109 241.758 17.4485 241.758 18.9702C241.758 20.492 240.546 21.7296 239.056 21.7296Z" fill="#E6E6E6"/>
<path d="M177.603 72.7769C177.044 72.7769 176.59 73.241 176.59 73.8116C176.59 74.0898 176.695 74.3472 176.886 74.5371C177.078 74.7385 177.331 74.8463 177.603 74.8463H329.235C329.793 74.8463 330.248 74.3822 330.248 73.8116C330.248 73.5334 330.143 73.276 329.952 73.0861C329.759 72.8846 329.507 72.7769 329.235 72.7769H177.603Z" fill="#E6E6E6"/>
<path d="M258.308 72.4319V75.1912H177.603C177.231 75.1912 176.894 75.0394 176.65 74.7842C176.4 74.5359 176.252 74.1909 176.252 73.8115C176.252 73.0527 176.86 72.4319 177.603 72.4319H258.308Z" fill="#3DF07F"/>
<path d="M327.546 67.2582H314.036C312.546 67.2582 311.334 66.0207 311.334 64.4989C311.334 62.9771 312.546 61.7396 314.036 61.7396H327.546C329.036 61.7396 330.248 62.9771 330.248 64.4989C330.248 66.0207 329.036 67.2582 327.546 67.2582Z" fill="#E6E6E6"/>
</g>
<defs>
<clipPath id="clip0_200_1879">
<rect width="408" height="422" fill="white"/>
</clipPath>
</defs>
</svg>
