<svg width="256" height="262" viewBox="0 0 256 262" fill="none" xmlns="http://www.w3.org/2000/svg">
<g clip-path="url(#clip0_270_1753)">
<path d="M255.878 133.451C255.878 122.717 255.007 114.884 253.122 106.761H130.55V155.209H202.497C201.047 167.249 193.214 185.381 175.807 197.565L175.563 199.187L214.318 229.21L217.003 229.478C241.662 206.704 255.878 173.196 255.878 133.451Z" fill="#4285F4"/>
<path d="M130.55 261.1C165.798 261.1 195.389 249.495 217.003 229.478L175.807 197.565C164.783 205.253 149.987 210.62 130.55 210.62C96.0268 210.62 66.7258 187.847 56.2808 156.37L54.7498 156.5L14.4518 187.687L13.9248 189.152C35.3928 231.798 79.4898 261.1 130.55 261.1Z" fill="#34A853"/>
<path d="M56.281 156.37C53.525 148.247 51.93 139.543 51.93 130.55C51.93 121.556 53.525 112.853 56.136 104.73L56.063 103L15.26 71.312L13.925 71.947C5.077 89.644 0 109.517 0 130.55C0 151.583 5.077 171.455 13.925 189.152L56.281 156.37Z" fill="#FBBC05"/>
<path d="M130.55 50.479C155.064 50.479 171.6 61.068 181.029 69.917L217.873 33.943C195.245 12.91 165.798 0 130.55 0C79.4898 0 35.3928 29.301 13.9248 71.947L56.1358 104.73C66.7258 73.253 96.0268 50.479 130.55 50.479Z" fill="#EB4335"/>
</g>
<defs>
<clipPath id="clip0_270_1753">
<rect width="256" height="262" fill="white"/>
</clipPath>
</defs>
</svg>
