<svg width="20" height="21" viewBox="0 0 20 21" fill="none" xmlns="http://www.w3.org/2000/svg">
<path fill-rule="evenodd" clip-rule="evenodd" d="M1.85002 10.3531C1.85002 5.85193 5.4989 2.20305 10 2.20305C14.5011 2.20305 18.15 5.85193 18.15 10.3531C18.15 14.8542 14.5011 18.5031 10 18.5031C5.4989 18.5031 1.85002 14.8542 1.85002 10.3531ZM10 0.503052C4.56002 0.503052 0.150024 4.91305 0.150024 10.3531C0.150024 15.7931 4.56002 20.2031 10 20.2031C15.44 20.2031 19.85 15.7931 19.85 10.3531C19.85 4.91305 15.44 0.503052 10 0.503052ZM9.15002 10.3531C9.15002 10.8225 9.53058 11.2031 10 11.2031C10.4695 11.2031 10.85 10.8225 10.85 10.3531V6.35306C10.85 5.88362 10.4695 5.50306 10 5.50306C9.53058 5.50306 9.15002 5.88362 9.15002 6.35306V10.3531ZM10 12.7031C9.36491 12.7031 8.85004 13.2179 8.85004 13.8531C8.85004 14.4882 9.36491 15.0031 10 15.0031C10.6352 15.0031 11.15 14.4882 11.15 13.8531C11.15 13.2179 10.6352 12.7031 10 12.7031Z" fill="#7C8DB5"/>
</svg>
