<svg width="64" height="64" viewBox="0 0 64 64" fill="none" xmlns="http://www.w3.org/2000/svg">
<g filter="url(#filter0_d_96_1421)">
<rect x="10" y="8" width="44" height="44" rx="12" fill="#E8E1D9" shape-rendering="crispEdges"/>
<path fill-rule="evenodd" clip-rule="evenodd" d="M26.85 26C26.85 24.2603 28.2603 22.85 30 22.85C31.7397 22.85 33.15 24.2603 33.15 26C33.15 27.7397 31.7397 29.15 30 29.15C28.2603 29.15 26.85 27.7397 26.85 26ZM30 21.15C27.3214 21.15 25.15 23.3214 25.15 26C25.15 28.6786 27.3214 30.85 30 30.85C32.6786 30.85 34.85 28.6786 34.85 26C34.85 23.3214 32.6786 21.15 30 21.15ZM24.85 35.9167C24.85 35.5137 25.1787 34.9979 26.2184 34.5388C27.2079 34.1018 28.5843 33.85 30 33.85C31.3957 33.85 32.7709 34.1431 33.7679 34.6047C34.2669 34.8357 34.6328 35.0912 34.863 35.3378C35.0846 35.5753 35.1477 35.7656 35.15 35.9085C35.1419 35.9301 35.1051 35.9982 34.9627 36.1088C34.7443 36.2786 34.3797 36.4616 33.865 36.6271C32.8446 36.955 31.4363 37.15 30 37.15C28.3015 37.15 26.9034 36.9521 25.9613 36.6316C25.4877 36.4704 25.1811 36.2955 25.0077 36.1425C24.849 36.0024 24.8499 35.9287 24.85 35.9174L24.85 35.9167ZM35.1519 35.9011C35.1521 35.9011 35.1519 35.903 35.1506 35.9068C35.1511 35.903 35.1517 35.9011 35.1519 35.9011ZM30 32.15C28.4158 32.15 26.7921 32.4271 25.5317 32.9837C24.3214 33.5181 23.15 34.4607 23.15 35.9167C23.15 36.5456 23.4676 37.0507 23.883 37.4173C24.2877 37.7744 24.8249 38.0406 25.4137 38.241C26.5967 38.6435 28.1985 38.85 30 38.85C31.5637 38.85 33.1555 38.6407 34.3851 38.2455C34.9953 38.0494 35.5683 37.7913 36.0061 37.451C36.4404 37.1134 36.85 36.6034 36.85 35.9167C36.85 35.2271 36.5361 34.639 36.1058 34.1779C35.6797 33.7213 35.1082 33.3518 34.4821 33.062C33.2291 32.4819 31.6043 32.15 30 32.15ZM36.1539 29.9185C36.199 29.4512 36.6143 29.1089 37.0816 29.1539C38.2957 29.2709 39.4222 29.5866 40.2734 30.0788C41.0978 30.5555 41.85 31.32 41.85 32.3733C41.85 32.9192 41.6411 33.4171 41.2349 33.8126C40.852 34.1855 40.3292 34.435 39.7319 34.6043C39.2802 34.7323 38.8103 34.47 38.6823 34.0184C38.5542 33.5667 38.8165 33.0968 39.2682 32.9688C39.7158 32.8419 39.943 32.6978 40.0488 32.5947C40.1314 32.5143 40.15 32.4536 40.15 32.3733C40.15 32.2166 40.0328 31.9034 39.4224 31.5505C38.8389 31.213 37.9654 30.947 36.9185 30.8461C36.4512 30.8011 36.1089 30.3858 36.1539 29.9185ZM38 21.15C37.5306 21.15 37.15 21.5306 37.15 22C37.15 22.4695 37.5306 22.85 38 22.85C38.9113 22.85 39.65 23.5888 39.65 24.5C39.65 25.4113 38.9113 26.15 38 26.15C37.5306 26.15 37.15 26.5306 37.15 27C37.15 27.4695 37.5306 27.85 38 27.85C39.8502 27.85 41.35 26.3502 41.35 24.5C41.35 22.6499 39.8502 21.15 38 21.15Z" fill="#753188"/>
</g>
<defs>
<filter id="filter0_d_96_1421" x="0" y="0" width="64" height="64" filterUnits="userSpaceOnUse" color-interpolation-filters="sRGB">
<feFlood flood-opacity="0" result="BackgroundImageFix"/>
<feColorMatrix in="SourceAlpha" type="matrix" values="0 0 0 0 0 0 0 0 0 0 0 0 0 0 0 0 0 0 127 0" result="hardAlpha"/>
<feOffset dy="2"/>
<feGaussianBlur stdDeviation="5"/>
<feComposite in2="hardAlpha" operator="out"/>
<feColorMatrix type="matrix" values="0 0 0 0 0.486275 0 0 0 0 0.552941 0 0 0 0 0.709804 0 0 0 0.12 0"/>
<feBlend mode="normal" in2="BackgroundImageFix" result="effect1_dropShadow_96_1421"/>
<feBlend mode="normal" in="SourceGraphic" in2="effect1_dropShadow_96_1421" result="shape"/>
</filter>
</defs>
</svg>
