<svg width="7" height="88" viewBox="0 0 7 88" fill="none" xmlns="http://www.w3.org/2000/svg">
<path d="M3.5 5.66666C4.97276 5.66666 6.16667 4.47276 6.16667 3C6.16667 1.52724 4.97276 0.333336 3.5 0.333336C2.02724 0.333336 0.833333 1.52724 0.833333 3C0.833333 4.47276 2.02724 5.66666 3.5 5.66666ZM4 88L4 84.4583L3 84.4583L3 88L4 88ZM4 77.375L4 70.2917L3 70.2917L3 77.375L4 77.375ZM4 63.2083L4 56.125L3 56.125L3 63.2083L4 63.2083ZM4 49.0417L4 41.9583L3 41.9583L3 49.0417L4 49.0417ZM4 34.875L4 27.7917L3 27.7917L3 34.875L4 34.875ZM4 20.7083L4 13.625L3 13.625L3 20.7083L4 20.7083ZM4 6.54166L4 3L3 3L3 6.54166L4 6.54166Z" fill="#00AC4F"/>
</svg>
