<svg width="20" height="20" viewBox="0 0 20 20" fill="none" xmlns="http://www.w3.org/2000/svg">
<path fill-rule="evenodd" clip-rule="evenodd" d="M1.44117 0C0.64548 0 0 0.625828 0 1.39684V18.1036C0 18.8747 0.645557 19.5 1.44117 19.5H18.0588C18.8548 19.5 19.5 18.8746 19.5 18.1034V1.39684C19.5 0.625828 18.8548 0 18.0588 0H1.44117ZM5.9257 7.54002V16.319H3.00771V7.54002H5.9257ZM6.11804 4.82502C6.11804 5.66748 5.48467 6.34161 4.46732 6.34161L4.4482 6.34153C3.46886 6.34153 2.83572 5.66741 2.83572 4.82495C2.83572 3.96337 3.48798 3.30806 4.48667 3.30806C5.48467 3.30806 6.099 3.96337 6.11804 4.82502ZM10.4586 16.319H7.54085C7.54085 16.319 7.57909 8.36389 7.54101 7.54032H10.4588V8.78295C10.8467 8.18489 11.5409 7.3342 13.0887 7.3342C15.0084 7.3342 16.4478 8.58898 16.4478 11.2854V16.319H13.5301V11.623C13.5301 10.4427 13.1076 9.63772 12.052 9.63772C11.2457 9.63772 10.7656 10.1806 10.5547 10.705C10.4777 10.8922 10.4586 11.1549 10.4586 11.4169V16.319Z" fill="#57504D"/>
</svg>
