<svg width="20" height="21" viewBox="0 0 20 21" fill="none" xmlns="http://www.w3.org/2000/svg">
<path fill-rule="evenodd" clip-rule="evenodd" d="M1.85002 10.3531C1.85002 8.3442 1.85029 6.80723 1.91141 5.61533C1.97333 4.40779 2.09509 3.65409 2.28923 3.16873C2.45864 2.7452 2.66921 2.55344 2.9956 2.42651C3.39632 2.27067 4.00387 2.20305 5.00002 2.20305C5.97383 2.20305 6.65326 2.26478 7.12813 2.37031C7.60149 2.4755 7.80451 2.60962 7.89898 2.70409C7.98323 2.78834 8.05462 2.9135 8.09909 3.18029C8.14761 3.47143 8.15002 3.83149 8.15002 4.35305C8.15002 4.82249 8.53058 5.20305 9.00002 5.20305C9.46947 5.20305 9.85003 4.82249 9.85003 4.35305L9.85003 4.31048V4.31046C9.8501 3.84417 9.85017 3.34608 9.77596 2.90081C9.69543 2.4176 9.51682 1.91777 9.10106 1.50201C8.69554 1.09648 8.14856 0.855602 7.49692 0.710793C6.84679 0.56632 6.02622 0.503052 5.00002 0.503052C3.99618 0.503052 3.10373 0.560432 2.37945 0.842098C1.58084 1.15267 1.04141 1.7109 0.710819 2.53737C0.404963 3.30201 0.276714 4.29832 0.21364 5.52827C0.150024 6.76877 0.150024 8.34889 0.150024 10.3286V10.3288V10.3531V10.3773V10.3775C0.150024 12.3572 0.150024 13.9373 0.21364 15.1778C0.276714 16.4078 0.404963 17.4041 0.710819 18.1687C1.04141 18.9952 1.58084 19.5534 2.37945 19.864C3.10373 20.1457 3.99618 20.2031 5.00002 20.2031C6.02622 20.2031 6.84679 20.1398 7.49692 19.9953C8.14856 19.8505 8.69554 19.6096 9.10106 19.2041C9.51682 18.7883 9.69543 18.2885 9.77596 17.8053C9.85017 17.36 9.8501 16.8619 9.85003 16.3956V16.3956L9.85003 16.3531C9.85003 15.8836 9.46947 15.5031 9.00002 15.5031C8.53058 15.5031 8.15002 15.8836 8.15002 16.3531C8.15002 16.8746 8.14761 17.2347 8.09909 17.5258C8.05462 17.7926 7.98323 17.9178 7.89898 18.002C7.80451 18.0965 7.60149 18.2306 7.12813 18.3358C6.65326 18.4413 5.97383 18.5031 5.00002 18.5031C4.00387 18.5031 3.39632 18.4354 2.9956 18.2796C2.66921 18.1527 2.45864 17.9609 2.28923 17.5374C2.09509 17.052 1.97333 16.2983 1.91141 15.0908C1.85029 13.8989 1.85002 12.3619 1.85002 10.3531ZM15.6011 5.75201C15.2691 5.42007 14.7309 5.42007 14.399 5.75201C14.067 6.08396 14.067 6.62215 14.399 6.95409L16.9479 9.50305H9.00002C8.53058 9.50305 8.15002 9.88361 8.15002 10.3531C8.15002 10.8225 8.53058 11.2031 9.00002 11.2031H16.9479L14.399 13.752C14.067 14.084 14.067 14.6221 14.399 14.9541C14.7309 15.286 15.2691 15.286 15.6011 14.9541L19.6011 10.9541C19.933 10.6221 19.933 10.084 19.6011 9.75201L15.6011 5.75201Z" fill="#FF3B30"/>
</svg>
