<svg width="428" height="352" viewBox="0 0 428 352" fill="none" xmlns="http://www.w3.org/2000/svg">
<g clip-path="url(#clip0_200_1850)">
<path d="M220.393 175.268C221.926 181.173 219.875 186.713 215.813 187.643C211.751 188.573 207.217 184.54 205.685 178.633C205.038 176.282 205.009 173.817 205.6 171.445L199.447 146.349L212.237 143.841L216.945 168.848C218.633 170.698 219.815 172.9 220.393 175.268Z" fill="#FFD6DC"/>
<path d="M166.77 318.768L167.558 335.217L166.769 339.768L169.531 345.078L191.232 347.354L192.416 337.492L180.973 331.803L180.641 322.509L166.77 318.768Z" fill="#FFD6DC"/>
<path d="M189.654 343.561L188.47 345.078L165.743 338.783C165.743 338.783 166.769 348.492 166.769 350.388C166.769 352.285 204.253 352.285 209.894 351.526C215.534 350.767 213.723 345.837 213.723 345.837L190.332 335.193L189.654 343.561Z" fill="#2F2E43"/>
<path d="M110.23 306.661L105.5 322.486L103.238 326.556L104.087 332.436L123.889 341.268L128.294 332.289L119.347 323.379L124.959 309.39L110.23 306.661Z" fill="#FFD6DC"/>
<path d="M123.657 337.189L122.03 338.262L102.594 325.307C102.594 325.307 100.333 334.82 99.7019 336.617C99.0705 338.414 134.584 349.945 140.18 350.962C145.776 351.978 145.702 346.75 145.702 346.75L127.084 329.47L123.657 337.189Z" fill="#2F2E43"/>
<path d="M168.3 47.215L169.128 60.151L144 61.3764L151.781 44.333L168.3 47.215Z" fill="#FFD6DC"/>
<path d="M169.77 58.2161C163.034 61.1039 152.261 60.3139 140.052 58.2161L138.144 139.523C138.144 139.523 176.335 146.904 189.466 133.285L182.555 66.8524L169.77 58.2161Z" fill="#E0E1E2"/>
<path d="M185.319 135.278L131.403 140.401L104.796 314.066H125.183L160.094 195.068L162.858 329.927H181.518L197.414 164.841L185.319 135.278Z" fill="#2F2E43"/>
<path d="M147.717 53.2336L129.602 63.5384C122.74 67.4421 119.505 75.3224 121.746 82.6787L135.746 128.645C135.746 128.645 112.947 166.295 120.356 169.617C137.003 177.081 161.845 175.264 161.845 175.264L156.293 85.1215L147.717 53.2336Z" fill="#3F3D58"/>
<path d="M168.983 57.8743L189.466 65.5237L194.304 122.324L207.851 168.082C184.905 176.134 187.047 172.382 187.047 172.382L183.246 93.4256L168.983 57.8743Z" fill="#3F3D58"/>
<path d="M198.905 167.114L198.835 166.803L177.897 73.7136C177.312 71.1126 178.06 68.5054 179.95 66.5601C181.839 64.6145 184.494 63.7185 187.234 64.1014C190.613 64.5737 193.319 66.9401 194.126 70.1301L217.125 161.002L198.905 167.114Z" fill="#3F3D58"/>
<path d="M157.396 50.6517C168.656 50.6517 177.783 41.8776 177.783 31.0542C177.783 20.2309 168.656 11.4568 157.396 11.4568C146.136 11.4568 137.009 20.2309 137.009 31.0542C137.009 41.8776 146.136 50.6517 157.396 50.6517Z" fill="#FFD6DC"/>
<path d="M167.095 5.66424C171.586 7.1814 174.156 8.04955 176.509 10.2293C180.485 13.9112 181.141 18.8315 181.751 23.4033C182.228 26.9798 182.845 31.6041 180.666 36.8873C179.922 38.6903 176.316 46.7233 169.412 47.7384C168.056 47.9378 164.873 47.9902 165.791 47.3391C174.282 41.3132 177.905 37.6754 177.608 28.3885C177.424 22.618 168.251 16.3878 162.804 15.2678C160.51 14.7961 157.455 15.2271 155.265 16.9556C150.687 20.5681 150.883 35.5065 146.055 38.6292C144.07 39.9135 145.393 30.8734 143.994 32.3394C141.234 35.232 143.005 39.6618 143.501 41.3488C145.853 49.3509 150.289 50.1341 152.586 56.9674C155.067 64.3449 151.945 71.2908 151.204 72.9379C149.917 75.8032 147.706 80.7206 142.656 83.0797C136.246 86.0741 131.193 82.1748 128.213 85.5177C126.547 87.3864 127.448 89.3656 124.44 95.1783C123.457 97.0758 122.966 98.0246 122.531 97.9909C120.474 97.8317 117.143 82.0003 122.53 67.2566C124.791 61.0692 127.007 55.0071 132.944 50.2668C136.084 47.7606 138.717 46.8588 139.466 43.9322C140.537 39.7511 136.091 37.9666 135.2 31.3695C134.59 26.8578 134.163 20.4052 135.82 16.2694C137.385 12.3637 138.743 8.97338 142.299 5.89939C143.153 5.16105 150.047 0.14228 157.356 0.000708901C160.721 -0.0643721 163.194 4.3461 167.095 5.66424Z" fill="#2F2E43"/>
<path d="M210.174 176.857C237.713 176.857 260.038 155.397 260.038 128.925C260.038 102.452 237.713 80.9924 210.174 80.9924C182.635 80.9924 160.31 102.452 160.31 128.925C160.31 155.397 182.635 176.857 210.174 176.857Z" fill="#3DF07F"/>
<path d="M197.557 160.197C200.584 149.701 203.611 139.204 206.638 128.708C207.282 126.474 207.781 123.992 209.256 122.095C210.396 120.629 212.19 119.67 214.088 120.273C218.614 121.711 218.541 127.988 218.461 131.651C218.339 137.18 217.041 142.697 214.651 147.729C214.323 148.42 214.446 149.243 215.176 149.653C215.804 150.006 216.847 149.842 217.176 149.148C219.57 144.109 220.992 138.715 221.323 133.18C221.609 128.404 221.63 122.107 217.324 118.852C215.219 117.261 212.533 116.788 210.065 117.888C207.627 118.974 206.138 121.224 205.202 123.554C204.16 126.144 203.54 128.921 202.77 131.594L200.286 140.206C198.436 146.621 196.586 153.035 194.736 159.449C194.233 161.195 197.054 161.941 197.557 160.197Z" fill="white"/>
<path d="M210.526 145.579C212.399 138.82 213.356 131.832 213.364 124.838C213.366 123.029 210.441 123.026 210.439 124.838C210.431 131.595 209.515 138.302 207.705 144.831C207.22 146.581 210.041 147.328 210.526 145.579Z" fill="white"/>
<path d="M180.457 145.497C182.418 136.412 184.539 127.298 187.26 118.392C189.466 111.17 193.27 102.986 201.298 100.368C205.285 99.0674 209.607 99.2768 213.687 100.031C217.734 100.78 221.833 101.893 225.563 103.597C229.093 105.209 232.359 107.431 234.683 110.493C236.978 113.515 238.407 117.022 239.177 120.675C240.964 129.15 238.86 137.809 236.503 145.978C236.19 147.065 235.869 148.15 235.548 149.235C235.033 150.979 237.854 151.723 238.369 149.983C240.973 141.176 243.678 131.975 242.465 122.732C241.94 118.734 240.774 114.807 238.695 111.289C236.565 107.684 233.491 104.737 229.806 102.595C226.09 100.434 221.907 99.0591 217.718 98.027C213.268 96.9307 208.638 96.2559 204.055 96.8685C199.734 97.4462 195.841 99.4156 192.781 102.389C189.646 105.436 187.526 109.242 185.962 113.22C184.237 117.608 183.11 122.217 181.923 126.759C180.669 131.56 179.499 136.381 178.413 141.22C178.149 142.395 177.891 143.572 177.637 144.75C177.477 145.493 177.863 146.269 178.658 146.479C179.383 146.671 180.296 146.244 180.457 145.497Z" fill="white"/>
<path d="M195.532 116.434C197.813 109.781 205.157 105.663 212.268 106.119C220.151 106.625 226.983 112.158 229.75 119.122C231.394 123.259 231.877 127.813 231.186 132.191C231.067 132.941 231.382 133.703 232.207 133.92C232.898 134.103 233.887 133.694 234.006 132.939C235.388 124.188 232.848 114.653 225.684 108.735C222.325 105.96 218.21 104.04 213.805 103.465C209.569 102.912 205.299 103.665 201.549 105.648C197.435 107.822 194.186 111.386 192.711 115.687C192.121 117.409 194.944 118.147 195.532 116.434Z" fill="white"/>
<path d="M189.309 129.328C188.68 136.541 186.789 143.672 183.73 150.287C183.409 150.98 183.52 151.797 184.255 152.21C184.878 152.561 185.933 152.403 186.255 151.706C189.539 144.606 191.559 137.073 192.233 129.328C192.299 128.571 191.514 127.923 190.771 127.923C189.925 127.923 189.375 128.569 189.309 129.328Z" fill="white"/>
<path d="M224.638 137.379C224.01 144.591 222.119 151.723 219.059 158.338C218.739 159.031 218.85 159.848 219.584 160.261C220.207 160.611 221.262 160.454 221.585 159.757C224.868 152.657 226.888 145.123 227.563 137.379C227.629 136.622 226.843 135.973 226.1 135.973C225.254 135.973 224.704 136.619 224.638 137.379Z" fill="white"/>
<path d="M196.668 131.784C198.548 124.615 201.664 117.821 205.892 111.645C206.93 110.129 204.398 108.719 203.366 110.226C199.012 116.588 195.784 123.653 193.847 131.036C193.387 132.791 196.207 133.54 196.668 131.784Z" fill="white"/>
<path d="M0 351.093C0 351.464 0.310048 351.762 0.696141 351.762H427.304C427.69 351.762 428 351.464 428 351.093C428 350.722 427.69 350.424 427.304 350.424H0.696141C0.310048 350.424 0 350.722 0 351.093Z" fill="#3F3D58"/>
<path d="M168.085 119.149C174.381 118.513 179.803 121.236 180.195 125.232C180.587 129.228 175.801 132.982 169.503 133.618C166.99 133.907 164.447 133.591 162.086 132.698L135.376 135.06L134.574 122.536L160.991 121.537C163.132 120.188 165.565 119.369 168.085 119.149Z" fill="#FFD6DC"/>
<path d="M135.543 64.1326C129.078 63.2572 123.012 67.3436 121.668 73.4856C116.98 94.9135 108.567 140.558 121.781 141.32C139.058 142.316 155.645 138.33 155.645 138.33L151.498 115.411L138.022 114.082L145.949 78.44C147.454 71.6724 142.672 65.0978 135.543 64.1326Z" fill="#3F3D58"/>
</g>
<defs>
<clipPath id="clip0_200_1850">
<rect width="428" height="352" fill="white"/>
</clipPath>
</defs>
</svg>
