<svg width="20" height="17" viewBox="0 0 20 17" fill="none" xmlns="http://www.w3.org/2000/svg">
<path d="M19.4133 1.93098C18.7825 2.20244 18.1194 2.39148 17.4402 2.4934C17.7577 2.43898 18.2249 1.86748 18.4109 1.63616C18.6934 1.28723 18.9087 0.888909 19.0459 0.461416C19.0459 0.429667 19.0776 0.38431 19.0459 0.361631C19.0299 0.352897 19.0119 0.348321 18.9937 0.348321C18.9755 0.348321 18.9576 0.352897 18.9416 0.361631C18.2041 0.760963 17.4193 1.06575 16.6057 1.26877C16.5773 1.27743 16.5471 1.27821 16.5184 1.27102C16.4896 1.26383 16.4633 1.24894 16.4424 1.22795C16.3791 1.15253 16.3109 1.08132 16.2383 1.01477C15.9064 0.717433 15.5299 0.474075 15.1225 0.293596C14.5726 0.0679805 13.9786 -0.0297286 13.3853 0.00784764C12.8097 0.0442002 12.2478 0.19859 11.7344 0.461416C11.2288 0.738512 10.7845 1.11495 10.4281 1.56812C10.0532 2.03455 9.78255 2.57585 9.63433 3.15561C9.51212 3.70709 9.49825 4.27706 9.59351 4.83382C9.59351 4.92907 9.59351 4.94268 9.51187 4.92907C6.27792 4.45282 3.62455 3.30529 1.45649 0.842414C1.36124 0.733558 1.31135 0.733558 1.23424 0.842414C0.290817 2.27569 0.748921 4.54354 1.9282 5.66385C2.08695 5.81353 2.25023 5.95867 2.42259 6.09474C1.8819 6.05635 1.35441 5.90983 0.871384 5.66385C0.780671 5.60489 0.730778 5.63664 0.726242 5.74549C0.713385 5.89641 0.713385 6.04814 0.726242 6.19906C0.820882 6.92232 1.10591 7.60747 1.55219 8.18444C1.99847 8.76141 2.58998 9.20951 3.26623 9.4829C3.43108 9.55351 3.60286 9.60671 3.77876 9.64165C3.27821 9.74019 2.76484 9.75552 2.2593 9.687C2.15045 9.66433 2.10963 9.72329 2.15045 9.82761C2.81719 11.6419 4.26408 12.1952 5.32543 12.5037C5.47057 12.5263 5.61571 12.5263 5.779 12.5626C5.779 12.5626 5.779 12.5626 5.75178 12.5898C5.43882 13.1613 4.17336 13.5469 3.5928 13.7464C2.53311 14.1271 1.40329 14.2726 0.281745 14.1728C0.104853 14.1456 0.0640321 14.1501 0.0186752 14.1728C-0.0266817 14.1955 0.0186752 14.2454 0.0685678 14.2907C0.295352 14.4404 0.522136 14.5719 0.757992 14.6989C1.46014 15.0819 2.20245 15.3861 2.97141 15.6061C6.95374 16.7037 11.435 15.8964 14.424 12.9255C16.7735 10.5941 17.599 7.37834 17.599 4.158C17.599 4.03554 17.7487 3.96297 17.8349 3.89947C18.4293 3.43633 18.9533 2.88937 19.3906 2.27569C19.4663 2.18421 19.5052 2.06774 19.4995 1.94912V1.94912C19.4995 1.88109 19.4995 1.89469 19.4133 1.93098Z" fill="#57504D"/>
</svg>
