<svg width="31" height="31" viewBox="0 0 31 31" fill="none" xmlns="http://www.w3.org/2000/svg">
<path fill-rule="evenodd" clip-rule="evenodd" d="M5.16666 7.74992C5.16666 4.89645 7.47985 2.58325 10.3333 2.58325H20.6667C23.5201 2.58325 25.8333 4.89645 25.8333 7.74992V23.2499C25.8333 26.1034 23.5201 28.4166 20.6667 28.4166H10.3333C7.47985 28.4166 5.16666 26.1034 5.16666 23.2499V7.74992ZM10.3333 5.16659C8.90659 5.16659 7.74999 6.32318 7.74999 7.74992V23.2499C7.74999 24.6767 8.90659 25.8333 10.3333 25.8333H20.6667C22.0934 25.8333 23.25 24.6767 23.25 23.2499V7.74992C23.25 6.32318 22.0934 5.16659 20.6667 5.16659H10.3333Z" fill="#008767"/>
<path fill-rule="evenodd" clip-rule="evenodd" d="M10.3333 2.58325H10.4769C12.0818 2.58325 13.4304 3.68097 13.8128 5.16659H17.1872C17.5696 3.68097 18.9182 2.58325 20.5232 2.58325H20.6667V5.16659H20.5232C20.0476 5.16659 19.662 5.55212 19.662 6.0277C19.662 6.97885 18.891 7.74992 17.9398 7.74992H13.0602C12.109 7.74992 11.338 6.97885 11.338 6.0277C11.338 5.55212 10.9524 5.16659 10.4769 5.16659H10.3333V2.58325Z" fill="#008767"/>
<path fill-rule="evenodd" clip-rule="evenodd" d="M20.2584 13.2661C20.7788 13.754 20.8052 14.5714 20.3173 15.0918L15.4736 20.2585C15.0108 20.7521 14.2456 20.805 13.7194 20.3797L10.8132 18.0313C10.2583 17.5829 10.172 16.7696 10.6203 16.2148C11.0687 15.6599 11.882 15.5736 12.4368 16.022L14.4097 17.6162L18.4327 13.325C18.9206 12.8046 19.738 12.7782 20.2584 13.2661Z" fill="#008767"/>
</svg>
