<svg width="24" height="24" viewBox="0 0 24 24" fill="none" xmlns="http://www.w3.org/2000/svg">
<path fill-rule="evenodd" clip-rule="evenodd" d="M6.84999 8.00002C6.84999 6.26033 8.2603 4.85002 9.99999 4.85002C11.7397 4.85002 13.15 6.26033 13.15 8.00002C13.15 9.73972 11.7397 11.15 9.99999 11.15C8.2603 11.15 6.84999 9.73972 6.84999 8.00002ZM9.99999 3.15002C7.32141 3.15002 5.14999 5.32144 5.14999 8.00002C5.14999 10.6786 7.32141 12.85 9.99999 12.85C12.6786 12.85 14.85 10.6786 14.85 8.00002C14.85 5.32144 12.6786 3.15002 9.99999 3.15002ZM4.84999 17.9167C4.84999 17.5137 5.17864 16.9979 6.21836 16.5388C7.20789 16.1018 8.58423 15.85 9.99999 15.85C11.3957 15.85 12.7709 16.1431 13.7679 16.6047C14.2668 16.8357 14.6328 17.0912 14.863 17.3378C15.0846 17.5753 15.1476 17.7656 15.1499 17.9085C15.1418 17.9301 15.1051 17.9982 14.9627 18.1088C14.7442 18.2786 14.3797 18.4616 13.8649 18.6271C12.8446 18.955 11.4363 19.15 9.99999 19.15C8.30149 19.15 6.90335 18.9521 5.96129 18.6316C5.48763 18.4704 5.18105 18.2955 5.00768 18.1425C4.84893 18.0024 4.84985 17.9287 4.84999 17.9174L4.84999 17.9167ZM15.1519 17.9011C15.1521 17.9011 15.1519 17.903 15.1505 17.9068C15.151 17.903 15.1517 17.9011 15.1519 17.9011ZM9.99999 14.15C8.41576 14.15 6.79209 14.4271 5.53163 14.9837C4.32134 15.5181 3.14999 16.4607 3.14999 17.9167C3.14999 18.5456 3.46755 19.0507 3.88293 19.4173C4.28769 19.7744 4.82486 20.0406 5.41369 20.241C6.59663 20.6435 8.19849 20.85 9.99999 20.85C11.5637 20.85 13.1554 20.6407 14.385 20.2455C14.9953 20.0494 15.5682 19.7913 16.006 19.451C16.4404 19.1134 16.85 18.6034 16.85 17.9167C16.85 17.2271 16.5361 16.639 16.1058 16.1779C15.6797 15.7213 15.1081 15.3518 14.4821 15.062C13.2291 14.4819 11.6043 14.15 9.99999 14.15ZM16.1539 11.9185C16.1989 11.4512 16.6142 11.1089 17.0815 11.1539C18.2957 11.2709 19.4222 11.5866 20.2734 12.0788C21.0977 12.5555 21.85 13.32 21.85 14.3733C21.85 14.9192 21.641 15.4171 21.2349 15.8126C20.8519 16.1855 20.3291 16.435 19.7318 16.6043C19.2802 16.7323 18.8103 16.47 18.6822 16.0184C18.5542 15.5667 18.8165 15.0968 19.2682 14.9688C19.7157 14.8419 19.9429 14.6978 20.0488 14.5947C20.1314 14.5143 20.15 14.4536 20.15 14.3733C20.15 14.2166 20.0328 13.9034 19.4224 13.5505C18.8388 13.213 17.9653 12.947 16.9185 12.8461C16.4512 12.8011 16.1089 12.3858 16.1539 11.9185ZM18 3.15002C17.5306 3.15002 17.15 3.53058 17.15 4.00002C17.15 4.46947 17.5306 4.85002 18 4.85002C18.9113 4.85002 19.65 5.58875 19.65 6.50002C19.65 7.41129 18.9113 8.15002 18 8.15002C17.5306 8.15002 17.15 8.53058 17.15 9.00002C17.15 9.46947 17.5306 9.85002 18 9.85002C19.8501 9.85002 21.35 8.35018 21.35 6.50002C21.35 4.64987 19.8501 3.15002 18 3.15002Z" fill="#347AE2"/>
</svg>
