<svg width="18" height="19" viewBox="0 0 18 19" fill="none" xmlns="http://www.w3.org/2000/svg">
<path fill-rule="evenodd" clip-rule="evenodd" d="M5.89281 3.29023C5.95947 2.82481 6.1017 2.56811 6.3032 2.39539C6.63851 2.10798 7.36297 1.85002 9.00002 1.85002C10.6371 1.85002 11.3615 2.10798 11.6969 2.39539C11.8987 2.56838 12.041 2.82561 12.1075 3.29243C11.2013 3.18947 10.1687 3.15002 9.00002 3.15002C7.83003 3.15002 6.79777 3.18959 5.89281 3.29023ZM4.15891 3.6032C4.20285 2.67767 4.42673 1.76476 5.19685 1.10466C6.0282 0.392068 7.30375 0.150024 9.00002 0.150024C10.6963 0.150024 11.9718 0.392068 12.8032 1.10466C13.5763 1.76732 13.7989 2.68476 13.8416 3.61398C14.7273 3.86095 15.4776 4.23422 16.0805 4.79772C17.2614 5.90161 17.6879 7.55946 17.8092 9.73896C17.8357 9.82122 17.85 9.90895 17.85 10C17.85 10.1577 17.8469 10.3169 17.8387 10.4766C17.8466 10.7793 17.85 11.0911 17.85 11.4118C17.85 13.8466 17.5321 15.8446 16.0663 17.1541C14.6393 18.429 12.3374 18.85 9.00002 18.85C7.31521 18.85 5.91604 18.768 4.77127 18.5397C3.62224 18.3105 2.67025 17.9227 1.9347 17.2676C0.455278 15.95 0.150024 13.8223 0.150024 11C0.150024 10.7798 0.151882 10.5639 0.156011 10.3522C0.151764 10.2343 0.150024 10.1167 0.150024 10C0.150024 9.93311 0.157757 9.868 0.172378 9.80554C0.264566 7.57216 0.671862 5.85718 1.9347 4.73246C2.53531 4.19754 3.28024 3.84084 4.15891 3.6032ZM1.85702 10.341C1.91096 7.91926 2.2797 6.70168 3.06535 6.00196C3.49647 5.618 4.12781 5.32221 5.10378 5.12755C6.08401 4.93205 7.35151 4.85002 9.00002 4.85002C10.6493 4.85002 11.9142 4.93218 12.8914 5.133C13.8623 5.33253 14.4892 5.63738 14.9196 6.03964C15.6917 6.76138 16.0647 8.0152 16.1369 10.459C16.1137 10.8253 16.0586 11.1213 15.9613 11.3695C15.837 11.6868 15.6282 11.9659 15.2262 12.2153C14.3434 12.763 12.5692 13.15 9.00607 13.15C5.44326 13.15 3.66526 12.7631 2.77898 12.2147C2.37506 11.9648 2.16503 11.6851 2.03999 11.368C1.93198 11.094 1.87554 10.7617 1.85702 10.341ZM15.9827 13.743C15.8014 14.7423 15.4647 15.412 14.9337 15.8864C14.0274 16.696 12.3293 17.15 9.00002 17.15C7.35151 17.15 6.08401 17.068 5.10378 16.8725C4.12781 16.6778 3.49647 16.3821 3.06535 15.9981C2.54773 15.5371 2.21107 14.8513 2.02619 13.7444C3.37574 14.5116 5.56842 14.85 9.00607 14.85C12.4448 14.85 14.6357 14.5114 15.9827 13.743ZM6.15002 11C6.15002 10.5306 6.53058 10.15 7.00002 10.15H11C11.4695 10.15 11.85 10.5306 11.85 11C11.85 11.4695 11.4695 11.85 11 11.85L7.00002 11.85C6.53058 11.85 6.15002 11.4695 6.15002 11Z" fill="#7C8DB5"/>
</svg>
